<?xml version="1.0" encoding="UTF-8" standalone="no"?><!DOCTYPE svg PUBLIC "-//W3C//DTD SVG 1.1//EN" "http://www.w3.org/Graphics/SVG/1.1/DTD/svg11.dtd"><svg width="100%" height="100%" viewBox="0 0 1923 1923" version="1.1" xmlns="http://www.w3.org/2000/svg" xmlns:xlink="http://www.w3.org/1999/xlink" xml:space="preserve" style="fill-rule:evenodd;clip-rule:evenodd;stroke-linejoin:round;stroke-miterlimit:1.41421;"><g id="rss"><path id="circle" d="M524.567,1662.2c0,140.346 -113.784,254.163 -254.259,254.163c-140.35,0 -254.191,-113.817 -254.191,-254.163c0,-140.537 113.841,-254.325 254.191,-254.325c140.475,0 254.259,113.783 254.259,254.325Z" style="fill:#3d3d3d;fill-rule:nonzero;"/><path d="M0,956.817c0,35.171 27.525,64.079 62.65,65.87c251.325,12.817 420.354,104.296 576.033,260.759c152.984,153.6 250.296,373.996 267.009,574.037c2.858,34.175 31.412,60.517 65.708,60.517l236.254,0c18.1,0 35.409,-7.433 47.867,-20.563c12.467,-13.124 18.979,-30.795 18.054,-48.87c-33.642,-658.967 -544.454,-1159.72 -1204.22,-1192.62c-18.058,-0.905 -35.683,5.645 -48.787,18.1c-13.1,12.454 -20.567,29.741 -20.567,47.821l0,234.954Z" style="fill:#3d3d3d;fill-rule:nonzero;"/><path d="M0,305.879c0,35.459 27.971,64.509 63.4,65.913c809.208,32.012 1459.65,674.158 1492.08,1482.83c1.417,35.379 30.5,63.367 65.908,63.367l235.238,0c17.904,0 35.033,-7.267 47.471,-20.142c12.437,-12.875 19.104,-30.242 18.504,-48.133c-34.342,-1018.83 -834.996,-1811.09 -1854.35,-1845.04c-17.879,-0.596 -35.229,6.092 -48.092,18.529c-12.862,12.429 -20.158,29.554 -20.158,47.442l0,235.237Z" style="fill:#3d3d3d;fill-rule:nonzero;"/></g></svg>