<?xml version="1.0" encoding="UTF-8" standalone="no"?><!DOCTYPE svg PUBLIC "-//W3C//DTD SVG 1.1//EN" "http://www.w3.org/Graphics/SVG/1.1/DTD/svg11.dtd"><svg width="100%" height="100%" viewBox="0 0 2132 2132" version="1.1" xmlns="http://www.w3.org/2000/svg" xmlns:xlink="http://www.w3.org/1999/xlink" xml:space="preserve" style="fill-rule:evenodd;clip-rule:evenodd;stroke-linejoin:round;stroke-miterlimit:1.41421;"><path d="M1487.66,204.883c-247.016,3.742 -441.637,217.075 -441.637,464.092l0,59.883c-441.638,-78.596 -658.713,-198.362 -898.246,-449.121c-142.221,276.959 14.971,509.005 187.133,636.259c-116.025,0 -213.333,-14.971 -288.187,-82.338c-7.484,-3.741 -14.971,0 -11.229,7.488c63.625,232.046 280.7,400.466 449.12,449.121c-153.45,0 -254.504,22.454 -363.041,-44.913c-7.484,-3.742 -14.971,0 -11.229,7.483c82.337,228.305 247.016,299.417 486.55,299.417c-119.767,89.825 -280.7,179.65 -583.859,187.133c-11.229,0 -18.712,14.971 -7.483,22.455c112.279,93.566 389.242,164.679 778.479,164.679c640,0 1160.23,-568.888 1160.23,-1272.52l0.001,-37.425c101.054,-37.425 157.191,-127.25 187.133,-217.075c0,-3.742 -3.742,-7.483 -7.488,-7.483l-213.333,74.854c-3.742,0 -7.483,-7.483 -3.742,-11.229c89.834,-71.113 157.2,-160.938 187.142,-247.021c0,0 -3.742,-3.742 -7.488,-3.742c-101.054,41.171 -198.362,82.338 -273.216,104.796c-11.229,3.742 -26.2,3.742 -37.425,-3.742c-48.654,-26.2 -194.621,-101.054 -288.188,-101.054" style="fill:#3d3d3d;fill-rule:nonzero;"/></svg>