<svg width="100%" height="100%" viewBox="0 0 200 200" version="1.1" xmlns="http://www.w3.org/2000/svg" xmlns:xlink="http://www.w3.org/1999/xlink" xml:space="preserve" xmlns:serif="http://www.serif.com/" fill-rule="evenodd" clip-rule="evenodd" stroke-linejoin="round" stroke-miterlimit="1.41421"><g><path d="M13.172,1C12.488,0.546 11.598,0.558 10.926,1.027L0.855,8.039C0.32,8.414 0,9.027 0,9.679L0,17.234C0,17.906 0.336,18.535 0.898,18.906L11.129,25.668C11.797,26.109 12.668,26.109 13.336,25.668L23.77,18.773C24.332,18.402 24.668,17.777 24.668,17.105L24.668,9.683C24.668,9.011 24.332,8.382 23.773,8.015L13.172,1ZM20.965,9.183L17.109,11.773L13.492,9.144L13.469,3.968L20.965,9.183ZM10.852,3.972L10.852,9.039L7.145,11.628L3.449,9.148L10.852,3.972ZM2.434,11.644L4.828,13.25L2.434,14.921L2.434,11.644ZM10.914,22.441L3.449,17.433L7.18,14.828L10.914,17.332L10.914,22.441ZM9.496,13.207L11.914,11.515L14.73,13.367L12.234,15.043L9.496,13.207ZM13.551,22.441L13.551,17.332L17.121,14.937L20.965,17.464L13.551,22.441ZM22.031,15.007L19.496,13.343L22.031,11.644L22.031,15.007Z" transform="matrix(7.8953,0,0,7.8953,2.61938,-5.26791)" fill-rule="nonzero"/></g></svg>