<svg width="100%" height="100%" viewBox="0 0 200 200" version="1.1" xmlns="http://www.w3.org/2000/svg" xmlns:xlink="http://www.w3.org/1999/xlink" xml:space="preserve" xmlns:serif="http://www.serif.com/" style="fill-rule:evenodd;clip-rule:evenodd;stroke-linejoin:round;stroke-miterlimit:1.41421;">
    <g id="palette" transform="matrix(0.846772,0,0,0.846772,3.4573e-06,-0.927249)">
        <g id="accent" transform="matrix(1.74292e-16,-2.8464,1.3179,8.06981e-17,-192.723,400.985)">
            <path d="M138,151.611C138,151.611 92.779,151.611 71.201,151.611C65.015,151.611 60,162.443 60,175.804C60,175.804 60,175.805 60,175.806C60,189.168 65.015,200 71.202,200C92.78,200 138,200 138,200L138,151.611Z"/>
            <path d="M140.29,200.557L140.247,201.108L140.176,201.644L140.077,202.16L139.952,202.649L139.802,203.104L139.63,203.52L139.437,203.892L139.226,204.215L139,204.485L138.761,204.699L138.513,204.853L138.258,204.947L138,204.978L71.198,204.978L71.115,204.978L71.028,204.976L70.941,204.973L70.855,204.969L70.768,204.963L70.682,204.957L70.595,204.949L70.509,204.94L70.423,204.93L70.337,204.919L70.251,204.907L70.165,204.893L70.08,204.879L69.994,204.863L69.909,204.846L69.824,204.828L69.739,204.809L69.654,204.788L69.569,204.767L69.485,204.744L69.4,204.72L69.316,204.696L69.232,204.67L69.148,204.642L69.064,204.614L68.981,204.585L68.897,204.554L68.814,204.523L68.731,204.49L68.648,204.456L68.565,204.422L68.482,204.386L68.4,204.349L68.318,204.311L68.236,204.271L68.154,204.231L68.072,204.19L67.991,204.147L67.909,204.104L67.828,204.06L67.747,204.014L67.667,203.967L67.586,203.92L67.506,203.871L67.426,203.821L67.346,203.771L67.266,203.719L67.186,203.666L67.107,203.612L67.028,203.557L66.949,203.501L66.87,203.444L66.792,203.386L66.714,203.328L66.636,203.268L66.558,203.207L66.48,203.145L66.403,203.082L66.326,203.018L66.249,202.953L66.172,202.887L66.096,202.82L66.02,202.752L65.944,202.684L65.868,202.614L65.793,202.543L65.717,202.472L65.642,202.399L65.568,202.325L65.493,202.251L65.419,202.175L65.345,202.099L65.271,202.022L65.198,201.943L65.125,201.864L65.052,201.784L64.979,201.703L64.906,201.621L64.834,201.538L64.762,201.454L64.691,201.37L64.619,201.284L64.548,201.198L64.477,201.11L64.407,201.022L64.336,200.933L64.266,200.843L64.197,200.752L64.127,200.66L64.058,200.567L63.989,200.474L63.92,200.379L63.852,200.284L63.784,200.188L63.716,200.091L63.649,199.993L63.581,199.894L63.514,199.795L63.448,199.695L63.382,199.593L63.316,199.491L63.25,199.388L63.184,199.285L63.119,199.18L63.054,199.075L62.99,198.969L62.926,198.862L62.862,198.754L62.798,198.645L62.735,198.536L62.672,198.426L62.609,198.315L62.547,198.203L62.485,198.09L62.423,197.977L62.362,197.863L62.301,197.748L62.24,197.632L62.18,197.516L62.12,197.399L62.06,197.281L62.001,197.162L61.942,197.043L61.883,196.922L61.824,196.801L61.766,196.68L61.709,196.557L61.651,196.434L61.594,196.31L61.537,196.185L61.481,196.06L61.425,195.934L61.369,195.807L61.314,195.679L61.259,195.551L61.204,195.422L61.15,195.292L61.096,195.161L61.043,195.03L60.989,194.899L60.937,194.766L60.884,194.633L60.832,194.499L60.78,194.364L60.729,194.229L60.678,194.093L60.627,193.956L60.577,193.819L60.527,193.681L60.477,193.542L60.428,193.403L60.38,193.263L60.331,193.122L60.283,192.981L60.236,192.839L60.188,192.696L60.141,192.553L60.095,192.409L60.049,192.265L60.003,192.12L59.958,191.974L59.913,191.828L59.869,191.681L59.824,191.533L59.781,191.385L59.737,191.236L59.694,191.087L59.652,190.936L59.61,190.786L59.568,190.635L59.527,190.483L59.486,190.33L59.445,190.177L59.405,190.024L59.366,189.869L59.327,189.715L59.288,189.559L59.249,189.403L59.212,189.247L59.174,189.09L59.137,188.932L59.1,188.774L59.064,188.615L59.028,188.456L58.993,188.296L58.958,188.136L58.923,187.975L58.889,187.813L58.856,187.652L58.822,187.489L58.79,187.326L58.757,187.163L58.726,186.998L58.694,186.834L58.663,186.669L58.633,186.503L58.603,186.337L58.573,186.171L58.544,186.004L58.515,185.836L58.487,185.668L58.459,185.5L58.432,185.33L58.405,185.161L58.379,184.991L58.353,184.821L58.328,184.65L58.303,184.479L58.278,184.307L58.254,184.135L58.231,183.962L58.208,183.789L58.185,183.616L58.163,183.442L58.141,183.267L58.12,183.092L58.1,182.917L58.08,182.742L58.06,182.566L58.041,182.389L58.022,182.213L58.004,182.035L57.987,181.858L57.969,181.68L57.953,181.501L57.937,181.322L57.921,181.143L57.906,180.964L57.891,180.784L57.877,180.604L57.864,180.423L57.851,180.242L57.838,180.061L57.826,179.879L57.814,179.697L57.803,179.515L57.793,179.332L57.783,179.149L57.774,178.966L57.765,178.782L57.756,178.598L57.748,178.414L57.741,178.229L57.734,178.045L57.728,177.86L57.722,177.674L57.717,177.489L57.713,177.303L57.708,177.116L57.705,176.93L57.702,176.743L57.699,176.556L57.698,176.369L57.696,176.182L57.695,175.994L57.695,175.813L57.695,175.796L57.695,175.616L57.696,175.428L57.698,175.241L57.699,175.053L57.702,174.866L57.705,174.679L57.708,174.493L57.713,174.307L57.717,174.121L57.722,173.935L57.728,173.75L57.734,173.565L57.741,173.38L57.748,173.195L57.756,173.011L57.765,172.827L57.774,172.643L57.783,172.46L57.793,172.278L57.803,172.095L57.814,171.912L57.826,171.731L57.838,171.549L57.851,171.367L57.864,171.187L57.877,171.006L57.891,170.826L57.906,170.646L57.921,170.466L57.937,170.287L57.953,170.109L57.969,169.93L57.987,169.752L58.004,169.575L58.022,169.397L58.041,169.22L58.06,169.044L58.08,168.868L58.1,168.692L58.12,168.517L58.141,168.342L58.163,168.168L58.185,167.994L58.208,167.821L58.231,167.648L58.254,167.475L58.278,167.303L58.303,167.131L58.328,166.96L58.353,166.789L58.379,166.619L58.405,166.449L58.432,166.279L58.459,166.111L58.487,165.942L58.515,165.774L58.544,165.606L58.573,165.439L58.603,165.273L58.633,165.107L58.663,164.941L58.694,164.776L58.726,164.612L58.757,164.448L58.79,164.284L58.822,164.121L58.856,163.959L58.889,163.797L58.923,163.635L58.958,163.475L58.993,163.314L59.028,163.154L59.064,162.995L59.1,162.836L59.137,162.678L59.174,162.52L59.211,162.363L59.249,162.207L59.288,162.051L59.327,161.896L59.366,161.741L59.405,161.587L59.445,161.433L59.486,161.28L59.527,161.128L59.568,160.976L59.61,160.825L59.652,160.674L59.694,160.524L59.737,160.374L59.78,160.226L59.824,160.077L59.868,159.93L59.913,159.783L59.958,159.636L60.003,159.491L60.049,159.346L60.095,159.201L60.141,159.057L60.188,158.914L60.235,158.771L60.283,158.63L60.331,158.488L60.379,158.347L60.428,158.207L60.477,158.068L60.527,157.93L60.577,157.792L60.627,157.654L60.678,157.518L60.729,157.382L60.78,157.246L60.832,157.112L60.884,156.978L60.936,156.845L60.989,156.712L61.042,156.58L61.096,156.449L61.15,156.319L61.204,156.189L61.259,156.06L61.314,155.931L61.369,155.804L61.425,155.677L61.481,155.551L61.537,155.425L61.594,155.301L61.651,155.177L61.708,155.054L61.766,154.931L61.824,154.809L61.883,154.688L61.941,154.568L62,154.449L62.06,154.33L62.12,154.212L62.18,154.095L62.24,153.978L62.301,153.863L62.362,153.748L62.423,153.634L62.485,153.52L62.547,153.408L62.609,153.296L62.672,153.185L62.735,153.075L62.798,152.965L62.862,152.857L62.925,152.749L62.99,152.642L63.054,152.536L63.119,152.431L63.184,152.326L63.25,152.222L63.315,152.12L63.381,152.018L63.447,151.916L63.514,151.816L63.581,151.716L63.648,151.618L63.716,151.52L63.783,151.423L63.852,151.327L63.92,151.232L63.989,151.137L64.057,151.044L64.127,150.951L64.196,150.859L64.266,150.768L64.336,150.678L64.406,150.589L64.477,150.501L64.548,150.413L64.619,150.327L64.69,150.241L64.762,150.157L64.834,150.073L64.906,149.99L64.978,149.908L65.051,149.827L65.124,149.747L65.197,149.668L65.271,149.589L65.345,149.512L65.419,149.436L65.493,149.36L65.567,149.286L65.642,149.212L65.717,149.139L65.792,149.068L65.868,148.997L65.943,148.927L66.019,148.859L66.095,148.791L66.172,148.724L66.249,148.658L66.325,148.593L66.403,148.529L66.48,148.466L66.557,148.404L66.635,148.343L66.713,148.284L66.791,148.225L66.87,148.167L66.949,148.11L67.027,148.054L67.106,147.999L67.186,147.945L67.265,147.892L67.345,147.841L67.425,147.79L67.505,147.74L67.585,147.691L67.666,147.644L67.747,147.597L67.828,147.552L67.909,147.507L67.99,147.464L68.072,147.421L68.153,147.38L68.235,147.34L68.317,147.301L68.399,147.262L68.482,147.225L68.564,147.19L68.647,147.155L68.73,147.121L68.813,147.088L68.896,147.057L68.98,147.026L69.064,146.997L69.147,146.969L69.231,146.942L69.315,146.916L69.4,146.891L69.484,146.867L69.569,146.844L69.653,146.823L69.738,146.803L69.823,146.783L69.908,146.765L69.994,146.748L70.079,146.732L70.165,146.718L70.25,146.704L70.336,146.692L70.422,146.681L70.508,146.671L70.594,146.662L70.681,146.654L70.767,146.648L70.854,146.642L70.941,146.638L71.027,146.635L71.114,146.633L71.198,146.633L138,146.633L138.258,146.664L138.513,146.758L138.761,146.912L139,147.126L139.226,147.396L139.437,147.719L139.63,148.091L139.802,148.507L139.952,148.963L140.077,149.451L140.176,149.967L140.247,150.503L140.29,151.054L140.305,151.611L140.305,200L140.29,200.557ZM138,151.611L71.201,151.611L71.129,151.612L71.057,151.613L70.984,151.616L70.912,151.619L70.84,151.624L70.768,151.629L70.697,151.635L70.625,151.643L70.553,151.651L70.482,151.66L70.411,151.671L70.339,151.682L70.268,151.694L70.197,151.707L70.127,151.721L70.056,151.736L69.985,151.752L69.915,151.769L69.845,151.787L69.775,151.806L69.705,151.825L69.635,151.846L69.565,151.867L69.495,151.89L69.426,151.913L69.357,151.938L69.288,151.963L69.218,151.989L69.15,152.016L69.081,152.044L69.012,152.073L68.944,152.103L68.876,152.133L68.807,152.165L68.739,152.197L68.672,152.231L68.604,152.265L68.536,152.3L68.469,152.336L68.402,152.373L68.335,152.411L68.268,152.449L68.201,152.489L68.135,152.529L68.068,152.57L68.002,152.612L67.936,152.655L67.87,152.699L67.805,152.743L67.739,152.789L67.674,152.835L67.609,152.882L67.544,152.93L67.479,152.979L67.414,153.029L67.35,153.079L67.286,153.13L67.222,153.183L67.158,153.236L67.094,153.289L67.031,153.344L66.967,153.399L66.904,153.455L66.841,153.512L66.779,153.57L66.716,153.629L66.654,153.688L66.592,153.748L66.53,153.809L66.468,153.871L66.406,153.934L66.345,153.997L66.284,154.061L66.223,154.126L66.162,154.191L66.102,154.258L66.042,154.325L65.982,154.393L65.922,154.462L65.862,154.531L65.803,154.601L65.743,154.672L65.685,154.744L65.626,154.816L65.567,154.89L65.509,154.964L65.451,155.038L65.393,155.114L65.335,155.19L65.278,155.267L65.221,155.344L65.164,155.423L65.107,155.502L65.051,155.581L64.995,155.662L64.939,155.743L64.883,155.825L64.827,155.907L64.772,155.991L64.717,156.075L64.662,156.159L64.608,156.245L64.553,156.331L64.499,156.417L64.446,156.505L64.392,156.593L64.339,156.682L64.286,156.771L64.233,156.861L64.18,156.952L64.128,157.043L64.076,157.136L64.025,157.228L63.973,157.322L63.922,157.416L63.871,157.511L63.82,157.606L63.77,157.702L63.72,157.799L63.67,157.896L63.62,157.994L63.571,158.093L63.522,158.192L63.473,158.292L63.425,158.392L63.376,158.493L63.328,158.595L63.281,158.697L63.233,158.8L63.186,158.903L63.14,159.008L63.093,159.112L63.047,159.218L63.001,159.324L62.955,159.43L62.91,159.537L62.865,159.645L62.82,159.753L62.776,159.862L62.731,159.972L62.688,160.082L62.644,160.192L62.601,160.303L62.558,160.415L62.515,160.527L62.473,160.64L62.431,160.754L62.389,160.868L62.348,160.982L62.307,161.097L62.266,161.213L62.225,161.329L62.185,161.446L62.145,161.563L62.106,161.681L62.067,161.799L62.028,161.918L61.989,162.037L61.951,162.157L61.913,162.277L61.875,162.398L61.838,162.52L61.801,162.642L61.765,162.764L61.728,162.887L61.692,163.011L61.657,163.135L61.622,163.259L61.587,163.384L61.552,163.509L61.518,163.635L61.484,163.762L61.45,163.889L61.417,164.016L61.384,164.144L61.352,164.272L61.32,164.401L61.288,164.53L61.257,164.66L61.225,164.79L61.195,164.921L61.164,165.052L61.134,165.183L61.105,165.315L61.075,165.448L61.046,165.581L61.018,165.714L60.989,165.848L60.962,165.982L60.934,166.116L60.907,166.251L60.88,166.387L60.854,166.523L60.828,166.659L60.802,166.796L60.777,166.933L60.752,167.071L60.728,167.208L60.703,167.347L60.68,167.486L60.656,167.625L60.633,167.764L60.611,167.904L60.589,168.045L60.567,168.185L60.545,168.326L60.524,168.468L60.504,168.61L60.483,168.752L60.463,168.894L60.444,169.037L60.425,169.181L60.406,169.324L60.388,169.469L60.37,169.613L60.353,169.758L60.336,169.903L60.319,170.048L60.303,170.194L60.287,170.34L60.271,170.487L60.256,170.634L60.242,170.781L60.228,170.928L60.214,171.076L60.2,171.224L60.187,171.373L60.175,171.521L60.163,171.67L60.151,171.82L60.14,171.969L60.129,172.12L60.119,172.27L60.109,172.42L60.099,172.571L60.09,172.723L60.081,172.874L60.073,173.026L60.065,173.178L60.058,173.33L60.051,173.483L60.044,173.636L60.038,173.789L60.033,173.942L60.027,174.096L60.023,174.25L60.018,174.404L60.015,174.559L60.011,174.714L60.008,174.869L60.006,175.024L60.004,175.179L60.002,175.335L60.001,175.491L60,175.647L60,175.804L60,175.962L60.001,176.118L60.002,176.274L60.004,176.43L60.006,176.586L60.008,176.741L60.011,176.896L60.015,177.051L60.018,177.205L60.023,177.359L60.027,177.513L60.033,177.667L60.038,177.821L60.044,177.974L60.051,178.127L60.058,178.279L60.065,178.432L60.073,178.584L60.081,178.736L60.09,178.887L60.099,179.038L60.109,179.189L60.119,179.34L60.129,179.49L60.14,179.64L60.151,179.79L60.163,179.939L60.175,180.088L60.187,180.237L60.2,180.386L60.214,180.534L60.228,180.682L60.242,180.829L60.256,180.976L60.271,181.123L60.287,181.27L60.303,181.416L60.319,181.562L60.336,181.707L60.353,181.852L60.37,181.997L60.388,182.141L60.406,182.285L60.425,182.429L60.444,182.572L60.464,182.715L60.483,182.858L60.504,183L60.524,183.142L60.545,183.284L60.567,183.425L60.589,183.565L60.611,183.706L60.633,183.846L60.656,183.985L60.68,184.124L60.703,184.263L60.728,184.402L60.752,184.54L60.777,184.677L60.802,184.814L60.828,184.951L60.854,185.087L60.88,185.223L60.907,185.359L60.934,185.494L60.962,185.628L60.99,185.762L61.018,185.896L61.046,186.03L61.075,186.162L61.105,186.295L61.134,186.427L61.164,186.558L61.195,186.689L61.226,186.82L61.257,186.95L61.288,187.08L61.32,187.209L61.352,187.338L61.385,187.466L61.417,187.594L61.451,187.722L61.484,187.849L61.518,187.975L61.552,188.101L61.587,188.226L61.622,188.351L61.657,188.476L61.693,188.6L61.729,188.723L61.765,188.846L61.801,188.969L61.838,189.091L61.876,189.212L61.913,189.333L61.951,189.453L61.989,189.573L62.028,189.693L62.067,189.811L62.106,189.93L62.145,190.048L62.185,190.165L62.225,190.281L62.266,190.398L62.307,190.513L62.348,190.628L62.389,190.743L62.431,190.857L62.473,190.97L62.515,191.083L62.558,191.195L62.601,191.307L62.644,191.418L62.688,191.529L62.732,191.639L62.776,191.748L62.82,191.857L62.865,191.966L62.91,192.073L62.955,192.18L63.001,192.287L63.047,192.393L63.093,192.498L63.14,192.603L63.187,192.707L63.234,192.811L63.281,192.914L63.329,193.016L63.377,193.118L63.425,193.219L63.473,193.319L63.522,193.419L63.571,193.518L63.62,193.617L63.67,193.715L63.72,193.812L63.77,193.909L63.82,194.005L63.871,194.1L63.922,194.195L63.973,194.289L64.025,194.382L64.077,194.475L64.129,194.567L64.181,194.659L64.233,194.75L64.286,194.84L64.339,194.929L64.392,195.018L64.446,195.106L64.5,195.193L64.554,195.28L64.608,195.366L64.663,195.452L64.717,195.536L64.772,195.62L64.828,195.704L64.883,195.786L64.939,195.868L64.995,195.949L65.051,196.03L65.108,196.109L65.164,196.188L65.221,196.267L65.278,196.344L65.336,196.421L65.393,196.497L65.451,196.573L65.509,196.647L65.568,196.721L65.626,196.795L65.685,196.867L65.744,196.939L65.803,197.01L65.863,197.08L65.922,197.149L65.982,197.218L66.042,197.286L66.102,197.353L66.163,197.42L66.224,197.485L66.284,197.55L66.346,197.614L66.407,197.677L66.468,197.74L66.53,197.802L66.592,197.863L66.654,197.923L66.716,197.982L66.779,198.041L66.842,198.099L66.905,198.156L66.968,198.212L67.031,198.267L67.095,198.322L67.158,198.376L67.222,198.428L67.286,198.481L67.35,198.532L67.415,198.582L67.48,198.632L67.544,198.681L67.609,198.729L67.674,198.776L67.74,198.822L67.805,198.868L67.871,198.912L67.937,198.956L68.003,198.999L68.069,199.041L68.135,199.082L68.202,199.122L68.269,199.162L68.336,199.201L68.403,199.238L68.47,199.275L68.537,199.311L68.605,199.346L68.672,199.38L68.74,199.414L68.808,199.446L68.876,199.478L68.945,199.508L69.013,199.538L69.082,199.567L69.15,199.595L69.219,199.622L69.288,199.648L69.357,199.673L69.427,199.698L69.496,199.721L69.566,199.744L69.635,199.765L69.705,199.786L69.775,199.806L69.846,199.824L69.916,199.842L69.986,199.859L70.057,199.875L70.127,199.89L70.198,199.904L70.269,199.917L70.34,199.929L70.411,199.941L70.483,199.951L70.554,199.96L70.626,199.969L70.697,199.976L70.769,199.982L70.841,199.988L70.913,199.992L70.985,199.996L71.057,199.998L71.13,200L71.202,200L138,200L138,151.611Z"/>
        </g>
        <g id="text" transform="matrix(1.40056,-2.47799,1.14732,0.648467,-262.704,260.743)">
            <path d="M138,151.611C138,151.611 92.779,151.611 71.201,151.611C65.015,151.611 60,162.443 60,175.804C60,175.804 60,175.805 60,175.806C60,189.168 65.015,200 71.202,200C92.78,200 138,200 138,200L138,151.611Z" style="fill:#414142;"/>
            <path d="M140.077,149.451L140.176,149.967L140.247,150.503L140.29,151.054L140.305,151.611L140.305,200L140.29,200.557L140.247,201.108L140.176,201.644L140.077,202.16L139.952,202.649L139.802,203.104L139.63,203.52L139.437,203.892L139.226,204.215L139,204.485L138.761,204.699L138.513,204.853L138.258,204.947L138,204.978L71.198,204.978L71.115,204.978L71.028,204.976L70.941,204.973L70.855,204.969L70.768,204.963L70.682,204.957L70.595,204.949L70.509,204.94L70.423,204.93L70.337,204.919L70.251,204.907L70.165,204.893L70.08,204.879L69.994,204.863L69.909,204.846L69.824,204.828L69.739,204.809L69.654,204.788L69.569,204.767L69.485,204.744L69.4,204.72L69.316,204.696L69.232,204.67L69.148,204.642L69.064,204.614L68.981,204.585L68.897,204.554L68.814,204.523L68.731,204.49L68.648,204.456L68.565,204.422L68.482,204.386L68.4,204.349L68.318,204.311L68.236,204.271L68.154,204.231L68.072,204.19L67.991,204.148L67.909,204.104L67.828,204.06L67.747,204.014L67.667,203.967L67.586,203.92L67.506,203.871L67.426,203.821L67.346,203.771L67.266,203.719L67.186,203.666L67.107,203.612L67.028,203.557L66.949,203.501L66.87,203.444L66.792,203.386L66.714,203.328L66.636,203.268L66.558,203.207L66.48,203.145L66.403,203.082L66.326,203.018L66.249,202.953L66.172,202.887L66.096,202.82L66.02,202.753L65.944,202.684L65.868,202.614L65.793,202.543L65.717,202.472L65.642,202.399L65.568,202.325L65.493,202.251L65.419,202.175L65.345,202.099L65.271,202.022L65.198,201.943L65.124,201.864L65.052,201.784L64.979,201.703L64.906,201.621L64.834,201.538L64.762,201.454L64.691,201.37L64.619,201.284L64.548,201.198L64.477,201.11L64.407,201.022L64.336,200.933L64.266,200.843L64.197,200.752L64.127,200.66L64.058,200.567L63.989,200.474L63.92,200.379L63.852,200.284L63.784,200.188L63.716,200.091L63.649,199.993L63.581,199.894L63.514,199.795L63.448,199.695L63.381,199.593L63.316,199.491L63.25,199.389L63.184,199.285L63.119,199.18L63.054,199.075L62.99,198.969L62.926,198.862L62.862,198.754L62.798,198.645L62.735,198.536L62.672,198.426L62.609,198.315L62.547,198.203L62.485,198.09L62.423,197.977L62.362,197.863L62.301,197.748L62.24,197.632L62.18,197.516L62.12,197.399L62.06,197.281L62.001,197.162L61.942,197.043L61.883,196.922L61.824,196.801L61.766,196.679L61.709,196.557L61.651,196.434L61.594,196.31L61.537,196.185L61.481,196.06L61.425,195.934L61.369,195.807L61.314,195.679L61.259,195.551L61.204,195.422L61.15,195.292L61.096,195.162L61.043,195.03L60.989,194.899L60.937,194.766L60.884,194.633L60.832,194.499L60.78,194.364L60.729,194.229L60.678,194.093L60.627,193.956L60.577,193.819L60.527,193.681L60.478,193.542L60.428,193.403L60.38,193.263L60.331,193.122L60.283,192.981L60.236,192.839L60.188,192.697L60.141,192.553L60.095,192.409L60.049,192.265L60.003,192.12L59.958,191.974L59.913,191.828L59.868,191.68L59.824,191.533L59.781,191.385L59.737,191.236L59.694,191.086L59.652,190.936L59.61,190.786L59.568,190.634L59.527,190.483L59.486,190.33L59.446,190.177L59.406,190.024L59.366,189.869L59.327,189.714L59.288,189.559L59.249,189.403L59.212,189.247L59.174,189.09L59.137,188.932L59.1,188.774L59.064,188.615L59.028,188.456L58.993,188.296L58.958,188.136L58.923,187.975L58.889,187.813L58.856,187.651L58.822,187.489L58.79,187.326L58.757,187.162L58.726,186.998L58.694,186.834L58.663,186.669L58.633,186.503L58.603,186.337L58.573,186.171L58.544,186.003L58.515,185.836L58.487,185.668L58.459,185.5L58.432,185.331L58.405,185.161L58.379,184.991L58.353,184.821L58.328,184.65L58.303,184.479L58.278,184.307L58.254,184.135L58.231,183.962L58.208,183.789L58.185,183.616L58.163,183.442L58.141,183.267L58.12,183.093L58.1,182.917L58.08,182.742L58.06,182.566L58.041,182.389L58.022,182.213L58.004,182.035L57.987,181.857L57.969,181.679L57.953,181.501L57.937,181.322L57.921,181.143L57.906,180.964L57.891,180.784L57.877,180.604L57.864,180.423L57.851,180.242L57.838,180.061L57.826,179.879L57.814,179.697L57.803,179.515L57.793,179.332L57.783,179.149L57.774,178.966L57.765,178.782L57.756,178.598L57.748,178.414L57.741,178.23L57.734,178.045L57.728,177.86L57.722,177.674L57.717,177.489L57.713,177.303L57.708,177.116L57.705,176.93L57.702,176.743L57.699,176.556L57.697,176.369L57.696,176.181L57.695,175.994L57.695,175.812L57.695,175.795L57.695,175.616L57.696,175.428L57.698,175.241L57.699,175.053L57.702,174.866L57.705,174.68L57.708,174.493L57.713,174.307L57.717,174.121L57.722,173.935L57.728,173.75L57.734,173.565L57.741,173.38L57.748,173.195L57.756,173.011L57.765,172.827L57.774,172.644L57.783,172.46L57.793,172.278L57.803,172.095L57.814,171.912L57.826,171.73L57.838,171.549L57.851,171.368L57.864,171.187L57.877,171.006L57.891,170.826L57.906,170.646L57.921,170.467L57.937,170.287L57.953,170.108L57.969,169.93L57.987,169.752L58.004,169.575L58.022,169.397L58.041,169.221L58.06,169.044L58.08,168.868L58.1,168.692L58.12,168.517L58.141,168.342L58.163,168.168L58.185,167.994L58.208,167.821L58.231,167.648L58.254,167.475L58.278,167.303L58.303,167.131L58.328,166.96L58.353,166.789L58.379,166.619L58.405,166.449L58.432,166.279L58.459,166.11L58.487,165.942L58.515,165.774L58.544,165.606L58.573,165.439L58.603,165.273L58.633,165.107L58.663,164.941L58.694,164.776L58.726,164.612L58.757,164.448L58.79,164.284L58.822,164.121L58.856,163.959L58.889,163.797L58.923,163.635L58.958,163.475L58.993,163.314L59.028,163.154L59.064,162.995L59.1,162.836L59.137,162.678L59.174,162.521L59.211,162.364L59.249,162.207L59.288,162.051L59.326,161.896L59.366,161.741L59.405,161.587L59.445,161.433L59.486,161.28L59.527,161.128L59.568,160.976L59.61,160.825L59.652,160.674L59.694,160.524L59.737,160.374L59.78,160.226L59.824,160.077L59.868,159.93L59.913,159.783L59.958,159.636L60.003,159.491L60.049,159.345L60.095,159.201L60.141,159.057L60.188,158.914L60.235,158.771L60.283,158.629L60.331,158.488L60.379,158.347L60.428,158.208L60.477,158.068L60.527,157.93L60.577,157.792L60.627,157.654L60.678,157.518L60.729,157.382L60.78,157.246L60.832,157.112L60.884,156.978L60.936,156.845L60.989,156.712L61.042,156.58L61.096,156.449L61.15,156.319L61.204,156.189L61.259,156.06L61.314,155.932L61.369,155.804L61.425,155.677L61.481,155.551L61.537,155.425L61.594,155.301L61.651,155.177L61.708,155.054L61.766,154.931L61.824,154.809L61.883,154.688L61.941,154.568L62,154.449L62.06,154.33L62.12,154.212L62.18,154.095L62.24,153.978L62.301,153.863L62.362,153.748L62.423,153.634L62.485,153.52L62.547,153.408L62.609,153.296L62.672,153.185L62.735,153.075L62.798,152.965L62.862,152.857L62.925,152.749L62.99,152.642L63.054,152.536L63.119,152.431L63.184,152.326L63.249,152.222L63.315,152.12L63.381,152.018L63.447,151.916L63.514,151.816L63.581,151.716L63.648,151.618L63.716,151.52L63.783,151.423L63.852,151.327L63.92,151.232L63.989,151.137L64.057,151.044L64.127,150.951L64.196,150.859L64.266,150.768L64.336,150.678L64.406,150.589L64.477,150.501L64.548,150.413L64.619,150.327L64.69,150.241L64.762,150.157L64.834,150.073L64.906,149.99L64.978,149.908L65.051,149.827L65.124,149.747L65.197,149.668L65.271,149.589L65.345,149.512L65.419,149.436L65.493,149.36L65.567,149.286L65.642,149.212L65.717,149.139L65.792,149.068L65.868,148.997L65.943,148.927L66.019,148.859L66.095,148.791L66.172,148.724L66.249,148.658L66.325,148.593L66.403,148.529L66.48,148.466L66.557,148.404L66.635,148.343L66.713,148.284L66.791,148.225L66.87,148.167L66.949,148.11L67.027,148.054L67.107,147.999L67.186,147.945L67.265,147.892L67.345,147.841L67.425,147.79L67.505,147.74L67.585,147.691L67.666,147.644L67.747,147.597L67.828,147.552L67.909,147.507L67.99,147.464L68.072,147.421L68.153,147.38L68.235,147.34L68.317,147.301L68.399,147.262L68.482,147.225L68.564,147.19L68.647,147.155L68.73,147.121L68.813,147.088L68.896,147.057L68.98,147.026L69.064,146.997L69.147,146.969L69.231,146.942L69.315,146.916L69.4,146.891L69.484,146.867L69.569,146.844L69.653,146.823L69.738,146.802L69.823,146.783L69.908,146.765L69.994,146.748L70.079,146.732L70.165,146.718L70.25,146.704L70.336,146.692L70.422,146.681L70.508,146.671L70.594,146.662L70.681,146.654L70.767,146.648L70.854,146.642L70.94,146.638L71.027,146.635L71.114,146.633L71.198,146.633L138,146.633L138.258,146.664L138.513,146.758L138.761,146.912L139,147.126L139.226,147.396L139.437,147.719L139.63,148.091L139.802,148.507L139.952,148.963L140.077,149.451ZM71.201,151.611L71.129,151.612L71.057,151.613L70.984,151.616L70.912,151.619L70.84,151.624L70.768,151.629L70.697,151.635L70.625,151.643L70.553,151.651L70.482,151.66L70.411,151.671L70.339,151.682L70.268,151.694L70.197,151.707L70.127,151.721L70.056,151.736L69.985,151.752L69.915,151.769L69.845,151.787L69.775,151.806L69.705,151.825L69.635,151.846L69.565,151.867L69.495,151.89L69.426,151.913L69.357,151.938L69.288,151.963L69.218,151.989L69.15,152.016L69.081,152.044L69.012,152.073L68.944,152.103L68.876,152.133L68.807,152.165L68.739,152.197L68.672,152.231L68.604,152.265L68.536,152.3L68.469,152.336L68.402,152.373L68.335,152.411L68.268,152.449L68.201,152.489L68.135,152.529L68.068,152.57L68.002,152.612L67.936,152.655L67.87,152.699L67.805,152.743L67.739,152.789L67.674,152.835L67.609,152.882L67.544,152.93L67.479,152.979L67.414,153.029L67.35,153.079L67.286,153.13L67.222,153.183L67.158,153.236L67.094,153.289L67.031,153.344L66.967,153.399L66.904,153.455L66.841,153.512L66.779,153.57L66.716,153.629L66.654,153.688L66.592,153.748L66.53,153.809L66.468,153.871L66.406,153.934L66.345,153.997L66.284,154.061L66.223,154.126L66.162,154.191L66.102,154.258L66.042,154.325L65.982,154.393L65.922,154.462L65.862,154.531L65.803,154.601L65.743,154.672L65.685,154.744L65.626,154.816L65.567,154.89L65.509,154.964L65.451,155.038L65.393,155.114L65.335,155.19L65.278,155.267L65.221,155.344L65.164,155.423L65.107,155.502L65.051,155.581L64.995,155.662L64.939,155.743L64.883,155.825L64.827,155.907L64.772,155.991L64.717,156.075L64.662,156.159L64.608,156.245L64.553,156.331L64.499,156.417L64.446,156.505L64.392,156.593L64.339,156.682L64.286,156.771L64.233,156.861L64.18,156.952L64.128,157.043L64.076,157.136L64.025,157.228L63.973,157.322L63.922,157.416L63.871,157.511L63.82,157.606L63.77,157.702L63.72,157.799L63.67,157.896L63.62,157.994L63.571,158.093L63.522,158.192L63.473,158.292L63.425,158.392L63.376,158.493L63.328,158.595L63.281,158.697L63.233,158.8L63.186,158.903L63.14,159.008L63.093,159.112L63.047,159.218L63.001,159.324L62.955,159.43L62.91,159.537L62.865,159.645L62.82,159.753L62.776,159.862L62.731,159.972L62.688,160.082L62.644,160.192L62.601,160.303L62.558,160.415L62.515,160.527L62.473,160.64L62.431,160.754L62.389,160.868L62.348,160.982L62.307,161.097L62.266,161.213L62.225,161.329L62.185,161.446L62.145,161.563L62.106,161.681L62.067,161.799L62.028,161.918L61.989,162.037L61.951,162.157L61.913,162.277L61.875,162.398L61.838,162.52L61.801,162.642L61.765,162.764L61.728,162.887L61.692,163.011L61.657,163.135L61.622,163.259L61.587,163.384L61.552,163.509L61.518,163.635L61.484,163.762L61.45,163.889L61.417,164.016L61.384,164.144L61.352,164.272L61.32,164.401L61.288,164.53L61.257,164.66L61.225,164.79L61.195,164.921L61.164,165.052L61.134,165.183L61.105,165.315L61.075,165.448L61.046,165.581L61.018,165.714L60.989,165.848L60.962,165.982L60.934,166.116L60.907,166.251L60.88,166.387L60.854,166.523L60.828,166.659L60.802,166.796L60.777,166.933L60.752,167.071L60.728,167.208L60.703,167.347L60.68,167.486L60.656,167.625L60.633,167.764L60.611,167.904L60.589,168.045L60.567,168.185L60.545,168.326L60.524,168.468L60.504,168.61L60.483,168.752L60.463,168.894L60.444,169.037L60.425,169.181L60.406,169.324L60.388,169.469L60.37,169.613L60.353,169.758L60.336,169.903L60.319,170.048L60.303,170.194L60.287,170.34L60.271,170.487L60.256,170.634L60.242,170.781L60.228,170.928L60.214,171.076L60.2,171.224L60.187,171.373L60.175,171.521L60.163,171.67L60.151,171.82L60.14,171.969L60.129,172.12L60.119,172.27L60.109,172.42L60.099,172.571L60.09,172.723L60.081,172.874L60.073,173.026L60.065,173.178L60.058,173.33L60.051,173.483L60.044,173.636L60.038,173.789L60.033,173.942L60.027,174.096L60.023,174.25L60.018,174.404L60.015,174.559L60.011,174.714L60.008,174.869L60.006,175.024L60.004,175.179L60.002,175.335L60.001,175.491L60,175.647L60,175.804L60,175.962L60.001,176.118L60.002,176.274L60.004,176.43L60.006,176.586L60.008,176.741L60.011,176.896L60.015,177.051L60.018,177.205L60.023,177.359L60.027,177.513L60.033,177.667L60.038,177.821L60.044,177.974L60.051,178.127L60.058,178.279L60.065,178.432L60.073,178.584L60.081,178.736L60.09,178.887L60.099,179.038L60.109,179.189L60.119,179.34L60.129,179.49L60.14,179.64L60.151,179.79L60.163,179.939L60.175,180.088L60.187,180.237L60.2,180.386L60.214,180.534L60.228,180.682L60.242,180.829L60.256,180.976L60.271,181.123L60.287,181.27L60.303,181.416L60.319,181.562L60.336,181.707L60.353,181.852L60.37,181.997L60.388,182.141L60.406,182.285L60.425,182.429L60.444,182.572L60.464,182.715L60.483,182.858L60.504,183L60.524,183.142L60.545,183.284L60.567,183.425L60.589,183.565L60.611,183.706L60.633,183.846L60.656,183.985L60.68,184.124L60.703,184.263L60.728,184.402L60.752,184.54L60.777,184.677L60.802,184.814L60.828,184.951L60.854,185.087L60.88,185.223L60.907,185.359L60.934,185.494L60.962,185.628L60.99,185.762L61.018,185.896L61.046,186.03L61.075,186.162L61.105,186.295L61.134,186.427L61.164,186.558L61.195,186.689L61.226,186.82L61.257,186.95L61.288,187.08L61.32,187.209L61.352,187.338L61.385,187.466L61.417,187.594L61.451,187.722L61.484,187.849L61.518,187.975L61.552,188.101L61.587,188.226L61.622,188.351L61.657,188.476L61.693,188.6L61.729,188.723L61.765,188.846L61.801,188.969L61.838,189.091L61.876,189.212L61.913,189.333L61.951,189.453L61.989,189.573L62.028,189.693L62.067,189.811L62.106,189.93L62.145,190.048L62.185,190.165L62.225,190.281L62.266,190.398L62.307,190.513L62.348,190.628L62.389,190.743L62.431,190.857L62.473,190.97L62.515,191.083L62.558,191.195L62.601,191.307L62.644,191.418L62.688,191.529L62.732,191.639L62.776,191.748L62.82,191.857L62.865,191.966L62.91,192.073L62.955,192.18L63.001,192.287L63.047,192.393L63.093,192.498L63.14,192.603L63.187,192.707L63.234,192.811L63.281,192.914L63.329,193.016L63.377,193.118L63.425,193.219L63.473,193.319L63.522,193.419L63.571,193.518L63.62,193.617L63.67,193.715L63.72,193.812L63.77,193.909L63.82,194.005L63.871,194.1L63.922,194.195L63.973,194.289L64.025,194.382L64.077,194.475L64.129,194.567L64.181,194.659L64.233,194.75L64.286,194.84L64.339,194.929L64.392,195.018L64.446,195.106L64.5,195.193L64.554,195.28L64.608,195.366L64.663,195.452L64.717,195.536L64.772,195.62L64.828,195.704L64.883,195.786L64.939,195.868L64.995,195.949L65.051,196.03L65.108,196.109L65.164,196.188L65.221,196.267L65.278,196.344L65.336,196.421L65.393,196.497L65.451,196.573L65.509,196.647L65.568,196.721L65.626,196.795L65.685,196.867L65.744,196.939L65.803,197.01L65.863,197.08L65.922,197.149L65.982,197.218L66.042,197.286L66.102,197.353L66.163,197.42L66.224,197.485L66.284,197.55L66.346,197.614L66.407,197.677L66.468,197.74L66.53,197.802L66.592,197.863L66.654,197.923L66.716,197.982L66.779,198.041L66.842,198.099L66.905,198.156L66.968,198.212L67.031,198.267L67.095,198.322L67.158,198.376L67.222,198.428L67.286,198.481L67.35,198.532L67.415,198.582L67.48,198.632L67.544,198.681L67.609,198.729L67.674,198.776L67.74,198.822L67.805,198.868L67.871,198.912L67.937,198.956L68.003,198.999L68.069,199.041L68.135,199.082L68.202,199.122L68.269,199.162L68.336,199.201L68.403,199.238L68.47,199.275L68.537,199.311L68.605,199.346L68.672,199.38L68.74,199.414L68.808,199.446L68.876,199.478L68.945,199.508L69.013,199.538L69.082,199.567L69.15,199.595L69.219,199.622L69.288,199.648L69.357,199.673L69.427,199.698L69.496,199.721L69.566,199.744L69.635,199.765L69.705,199.786L69.775,199.806L69.846,199.824L69.916,199.842L69.986,199.859L70.057,199.875L70.127,199.89L70.198,199.904L70.269,199.917L70.34,199.929L70.411,199.941L70.483,199.951L70.554,199.96L70.626,199.969L70.697,199.976L70.769,199.982L70.841,199.988L70.913,199.992L70.985,199.996L71.057,199.998L71.13,200L71.202,200L138,200L138,151.611L71.201,151.611Z"/>
        </g>
        <g id="link" transform="matrix(2.45254,-1.44466,0.668884,1.13554,-253.243,101.538)">
            <path d="M138,151.611C138,151.611 92.779,151.611 71.201,151.611C65.015,151.611 60,162.443 60,175.804C60,175.804 60,175.805 60,175.806C60,189.168 65.015,200 71.202,200C92.78,200 138,200 138,200L138,151.611Z" style="fill:#d7545e;"/>
            <path d="M139.437,147.719L139.63,148.091L139.802,148.507L139.952,148.963L140.077,149.451L140.176,149.967L140.247,150.503L140.29,151.054L140.305,151.611L140.305,200L140.29,200.557L140.247,201.108L140.176,201.644L140.077,202.16L139.952,202.649L139.802,203.104L139.63,203.52L139.437,203.892L139.226,204.215L139,204.485L138.761,204.699L138.513,204.853L138.258,204.947L138,204.978L71.198,204.978L71.115,204.978L71.028,204.976L70.941,204.973L70.855,204.969L70.768,204.963L70.681,204.957L70.595,204.949L70.509,204.94L70.423,204.93L70.337,204.919L70.251,204.907L70.165,204.893L70.08,204.879L69.994,204.863L69.909,204.846L69.824,204.828L69.739,204.809L69.654,204.788L69.569,204.767L69.485,204.744L69.4,204.72L69.316,204.696L69.232,204.67L69.148,204.642L69.064,204.614L68.981,204.585L68.897,204.554L68.814,204.523L68.731,204.49L68.648,204.456L68.565,204.422L68.482,204.386L68.4,204.349L68.318,204.311L68.236,204.271L68.154,204.231L68.072,204.19L67.991,204.148L67.909,204.104L67.828,204.06L67.747,204.014L67.667,203.967L67.586,203.92L67.506,203.871L67.426,203.821L67.346,203.771L67.266,203.719L67.186,203.666L67.107,203.612L67.028,203.557L66.949,203.501L66.87,203.444L66.792,203.386L66.714,203.328L66.636,203.268L66.558,203.207L66.48,203.145L66.403,203.082L66.326,203.018L66.249,202.953L66.172,202.887L66.096,202.82L66.02,202.753L65.944,202.684L65.868,202.614L65.793,202.543L65.717,202.472L65.642,202.399L65.568,202.325L65.493,202.251L65.419,202.175L65.345,202.099L65.271,202.022L65.198,201.943L65.124,201.864L65.052,201.784L64.979,201.703L64.906,201.621L64.834,201.538L64.762,201.454L64.691,201.37L64.619,201.284L64.548,201.198L64.477,201.11L64.407,201.022L64.336,200.933L64.266,200.843L64.196,200.752L64.127,200.66L64.058,200.567L63.989,200.474L63.92,200.379L63.852,200.284L63.784,200.188L63.716,200.091L63.649,199.993L63.581,199.894L63.515,199.795L63.448,199.695L63.382,199.593L63.316,199.491L63.25,199.388L63.184,199.285L63.119,199.18L63.054,199.075L62.99,198.969L62.926,198.862L62.862,198.754L62.798,198.645L62.735,198.536L62.672,198.426L62.609,198.315L62.547,198.203L62.485,198.09L62.423,197.977L62.362,197.863L62.301,197.748L62.24,197.632L62.18,197.516L62.12,197.399L62.06,197.281L62.001,197.162L61.941,197.042L61.883,196.922L61.824,196.801L61.766,196.68L61.709,196.557L61.651,196.434L61.594,196.31L61.537,196.185L61.481,196.06L61.425,195.934L61.369,195.807L61.314,195.679L61.259,195.551L61.204,195.422L61.15,195.292L61.096,195.162L61.043,195.03L60.989,194.898L60.937,194.766L60.884,194.633L60.832,194.499L60.78,194.364L60.729,194.229L60.678,194.093L60.627,193.956L60.577,193.819L60.527,193.681L60.478,193.542L60.428,193.403L60.38,193.263L60.331,193.122L60.283,192.981L60.236,192.839L60.188,192.697L60.141,192.553L60.095,192.409L60.049,192.265L60.003,192.12L59.958,191.974L59.913,191.828L59.868,191.681L59.824,191.533L59.781,191.385L59.737,191.236L59.694,191.086L59.652,190.936L59.61,190.786L59.568,190.635L59.527,190.483L59.486,190.33L59.446,190.177L59.405,190.024L59.366,189.869L59.327,189.714L59.288,189.559L59.249,189.403L59.212,189.247L59.174,189.09L59.137,188.932L59.1,188.774L59.064,188.615L59.028,188.456L58.993,188.296L58.958,188.136L58.923,187.975L58.889,187.814L58.856,187.651L58.822,187.489L58.79,187.326L58.757,187.162L58.726,186.998L58.694,186.834L58.663,186.669L58.633,186.503L58.603,186.337L58.573,186.171L58.544,186.004L58.515,185.836L58.487,185.668L58.459,185.499L58.432,185.331L58.405,185.161L58.379,184.991L58.353,184.821L58.328,184.65L58.303,184.479L58.278,184.307L58.254,184.135L58.231,183.962L58.208,183.789L58.185,183.616L58.163,183.442L58.141,183.267L58.12,183.093L58.1,182.918L58.08,182.742L58.06,182.566L58.041,182.389L58.022,182.213L58.004,182.035L57.987,181.858L57.969,181.68L57.953,181.501L57.937,181.322L57.921,181.143L57.906,180.964L57.891,180.784L57.877,180.604L57.864,180.423L57.851,180.242L57.838,180.061L57.826,179.879L57.814,179.697L57.803,179.515L57.793,179.332L57.783,179.149L57.774,178.966L57.765,178.782L57.756,178.598L57.748,178.414L57.741,178.23L57.734,178.045L57.728,177.86L57.722,177.674L57.717,177.489L57.713,177.303L57.708,177.116L57.705,176.93L57.702,176.743L57.699,176.556L57.697,176.369L57.696,176.181L57.695,175.994L57.695,175.82L57.695,175.802L57.695,175.616L57.696,175.428L57.697,175.241L57.699,175.053L57.702,174.866L57.705,174.68L57.708,174.493L57.713,174.307L57.717,174.121L57.722,173.935L57.728,173.75L57.734,173.565L57.741,173.38L57.748,173.195L57.756,173.011L57.765,172.827L57.774,172.644L57.783,172.46L57.793,172.277L57.803,172.095L57.814,171.913L57.826,171.73L57.838,171.549L57.851,171.368L57.864,171.187L57.877,171.006L57.891,170.826L57.906,170.646L57.921,170.466L57.937,170.287L57.953,170.109L57.969,169.93L57.987,169.752L58.004,169.574L58.022,169.397L58.041,169.221L58.06,169.044L58.08,168.868L58.1,168.692L58.12,168.517L58.141,168.342L58.163,168.168L58.185,167.994L58.208,167.821L58.231,167.648L58.254,167.475L58.278,167.303L58.303,167.131L58.328,166.96L58.353,166.789L58.379,166.619L58.405,166.449L58.432,166.279L58.459,166.11L58.487,165.942L58.515,165.774L58.544,165.606L58.573,165.439L58.603,165.273L58.633,165.107L58.663,164.941L58.694,164.776L58.726,164.612L58.757,164.448L58.79,164.284L58.822,164.121L58.856,163.959L58.889,163.797L58.923,163.635L58.958,163.474L58.993,163.314L59.028,163.154L59.064,162.995L59.1,162.836L59.137,162.678L59.174,162.521L59.211,162.364L59.249,162.207L59.288,162.051L59.327,161.896L59.366,161.741L59.405,161.587L59.445,161.433L59.486,161.28L59.527,161.128L59.568,160.976L59.61,160.825L59.652,160.674L59.694,160.524L59.737,160.374L59.781,160.226L59.824,160.077L59.868,159.93L59.913,159.783L59.958,159.636L60.003,159.491L60.049,159.345L60.095,159.201L60.141,159.057L60.188,158.914L60.235,158.771L60.283,158.629L60.331,158.488L60.379,158.347L60.428,158.207L60.477,158.068L60.527,157.93L60.577,157.792L60.627,157.654L60.678,157.518L60.729,157.382L60.78,157.246L60.832,157.112L60.884,156.978L60.936,156.845L60.989,156.712L61.042,156.58L61.096,156.449L61.15,156.319L61.204,156.189L61.259,156.06L61.314,155.932L61.369,155.804L61.425,155.677L61.481,155.551L61.537,155.426L61.594,155.301L61.651,155.177L61.708,155.054L61.766,154.931L61.824,154.809L61.883,154.688L61.941,154.568L62,154.449L62.06,154.33L62.12,154.212L62.18,154.095L62.24,153.978L62.301,153.863L62.362,153.748L62.423,153.634L62.485,153.52L62.547,153.408L62.609,153.296L62.672,153.185L62.735,153.075L62.798,152.965L62.862,152.857L62.925,152.749L62.99,152.642L63.054,152.536L63.119,152.431L63.184,152.326L63.249,152.222L63.315,152.12L63.381,152.018L63.447,151.916L63.514,151.816L63.581,151.716L63.648,151.618L63.716,151.52L63.783,151.423L63.852,151.327L63.92,151.232L63.988,151.137L64.057,151.044L64.127,150.951L64.196,150.859L64.266,150.768L64.336,150.678L64.406,150.589L64.477,150.501L64.548,150.413L64.619,150.327L64.69,150.241L64.762,150.157L64.834,150.073L64.906,149.99L64.978,149.908L65.051,149.827L65.124,149.747L65.197,149.668L65.271,149.589L65.345,149.512L65.419,149.436L65.493,149.36L65.567,149.286L65.642,149.212L65.717,149.139L65.792,149.068L65.868,148.997L65.943,148.927L66.019,148.859L66.095,148.791L66.172,148.724L66.249,148.658L66.325,148.593L66.402,148.529L66.48,148.466L66.557,148.404L66.635,148.343L66.713,148.284L66.791,148.225L66.87,148.167L66.949,148.11L67.027,148.054L67.106,147.999L67.186,147.945L67.265,147.892L67.345,147.841L67.425,147.79L67.505,147.74L67.585,147.691L67.666,147.644L67.747,147.597L67.828,147.552L67.909,147.507L67.99,147.464L68.071,147.421L68.153,147.38L68.235,147.34L68.317,147.301L68.399,147.262L68.482,147.225L68.564,147.19L68.647,147.155L68.73,147.121L68.813,147.088L68.896,147.057L68.98,147.026L69.064,146.997L69.147,146.969L69.231,146.942L69.315,146.916L69.4,146.891L69.484,146.867L69.569,146.844L69.653,146.823L69.738,146.803L69.823,146.783L69.908,146.765L69.994,146.748L70.079,146.732L70.165,146.718L70.25,146.704L70.336,146.692L70.422,146.681L70.508,146.671L70.594,146.662L70.681,146.654L70.767,146.648L70.854,146.642L70.941,146.638L71.027,146.635L71.114,146.633L71.198,146.633L138,146.633L138.258,146.664L138.513,146.758L138.761,146.912L139,147.126L139.226,147.396L139.437,147.719ZM71.201,151.611L71.129,151.612L71.057,151.613L70.984,151.616L70.912,151.619L70.84,151.624L70.768,151.629L70.697,151.635L70.625,151.643L70.553,151.651L70.482,151.66L70.411,151.671L70.339,151.682L70.268,151.694L70.197,151.707L70.127,151.721L70.056,151.736L69.985,151.752L69.915,151.769L69.845,151.787L69.775,151.806L69.705,151.825L69.635,151.846L69.565,151.867L69.495,151.89L69.426,151.913L69.357,151.938L69.288,151.963L69.218,151.989L69.15,152.016L69.081,152.044L69.012,152.073L68.944,152.103L68.876,152.133L68.807,152.165L68.739,152.197L68.672,152.231L68.604,152.265L68.536,152.3L68.469,152.336L68.402,152.373L68.335,152.411L68.268,152.449L68.201,152.489L68.135,152.529L68.068,152.57L68.002,152.612L67.936,152.655L67.87,152.699L67.805,152.743L67.739,152.789L67.674,152.835L67.609,152.882L67.544,152.93L67.479,152.979L67.414,153.029L67.35,153.079L67.286,153.13L67.222,153.183L67.158,153.236L67.094,153.289L67.031,153.344L66.967,153.399L66.904,153.455L66.841,153.512L66.779,153.57L66.716,153.629L66.654,153.688L66.592,153.748L66.53,153.809L66.468,153.871L66.406,153.934L66.345,153.997L66.284,154.061L66.223,154.126L66.162,154.191L66.102,154.258L66.042,154.325L65.982,154.393L65.922,154.462L65.862,154.531L65.803,154.601L65.743,154.672L65.685,154.744L65.626,154.816L65.567,154.89L65.509,154.964L65.451,155.038L65.393,155.114L65.335,155.19L65.278,155.267L65.221,155.344L65.164,155.423L65.107,155.502L65.051,155.581L64.995,155.662L64.939,155.743L64.883,155.825L64.827,155.907L64.772,155.991L64.717,156.075L64.662,156.159L64.608,156.245L64.553,156.331L64.499,156.417L64.446,156.505L64.392,156.593L64.339,156.682L64.286,156.771L64.233,156.861L64.18,156.952L64.128,157.043L64.076,157.136L64.025,157.228L63.973,157.322L63.922,157.416L63.871,157.511L63.82,157.606L63.77,157.702L63.72,157.799L63.67,157.896L63.62,157.994L63.571,158.093L63.522,158.192L63.473,158.292L63.425,158.392L63.376,158.493L63.328,158.595L63.281,158.697L63.233,158.8L63.186,158.903L63.14,159.008L63.093,159.112L63.047,159.218L63.001,159.324L62.955,159.43L62.91,159.537L62.865,159.645L62.82,159.753L62.776,159.862L62.731,159.972L62.688,160.082L62.644,160.192L62.601,160.303L62.558,160.415L62.515,160.527L62.473,160.64L62.431,160.754L62.389,160.868L62.348,160.982L62.307,161.097L62.266,161.213L62.225,161.329L62.185,161.446L62.145,161.563L62.106,161.681L62.067,161.799L62.028,161.918L61.989,162.037L61.951,162.157L61.913,162.277L61.875,162.398L61.838,162.52L61.801,162.642L61.765,162.764L61.728,162.887L61.692,163.011L61.657,163.135L61.622,163.259L61.587,163.384L61.552,163.509L61.518,163.635L61.484,163.762L61.45,163.889L61.417,164.016L61.384,164.144L61.352,164.272L61.32,164.401L61.288,164.53L61.257,164.66L61.225,164.79L61.195,164.921L61.164,165.052L61.134,165.183L61.105,165.315L61.075,165.448L61.046,165.581L61.018,165.714L60.989,165.848L60.962,165.982L60.934,166.116L60.907,166.251L60.88,166.387L60.854,166.523L60.828,166.659L60.802,166.796L60.777,166.933L60.752,167.071L60.728,167.208L60.703,167.347L60.68,167.486L60.656,167.625L60.633,167.764L60.611,167.904L60.589,168.045L60.567,168.185L60.545,168.326L60.524,168.468L60.504,168.61L60.483,168.752L60.463,168.894L60.444,169.037L60.425,169.181L60.406,169.324L60.388,169.469L60.37,169.613L60.353,169.758L60.336,169.903L60.319,170.048L60.303,170.194L60.287,170.34L60.271,170.487L60.256,170.634L60.242,170.781L60.228,170.928L60.214,171.076L60.2,171.224L60.187,171.373L60.175,171.521L60.163,171.67L60.151,171.82L60.14,171.969L60.129,172.12L60.119,172.27L60.109,172.42L60.099,172.571L60.09,172.723L60.081,172.874L60.073,173.026L60.065,173.178L60.058,173.33L60.051,173.483L60.044,173.636L60.038,173.789L60.033,173.942L60.027,174.096L60.023,174.25L60.018,174.404L60.015,174.559L60.011,174.714L60.008,174.869L60.006,175.024L60.004,175.179L60.002,175.335L60.001,175.491L60,175.647L60,175.804L60,175.962L60.001,176.118L60.002,176.274L60.004,176.43L60.006,176.586L60.008,176.741L60.011,176.896L60.015,177.051L60.018,177.205L60.023,177.359L60.027,177.513L60.033,177.667L60.038,177.821L60.044,177.974L60.051,178.127L60.058,178.279L60.065,178.432L60.073,178.584L60.081,178.736L60.09,178.887L60.099,179.038L60.109,179.189L60.119,179.34L60.129,179.49L60.14,179.64L60.151,179.79L60.163,179.939L60.175,180.088L60.187,180.237L60.2,180.386L60.214,180.534L60.228,180.682L60.242,180.829L60.256,180.976L60.271,181.123L60.287,181.27L60.303,181.416L60.319,181.562L60.336,181.707L60.353,181.852L60.37,181.997L60.388,182.141L60.406,182.285L60.425,182.429L60.444,182.572L60.464,182.715L60.483,182.858L60.504,183L60.524,183.142L60.545,183.284L60.567,183.425L60.589,183.565L60.611,183.706L60.633,183.846L60.656,183.985L60.68,184.124L60.703,184.263L60.728,184.402L60.752,184.54L60.777,184.677L60.802,184.814L60.828,184.951L60.854,185.087L60.88,185.223L60.907,185.359L60.934,185.494L60.962,185.628L60.99,185.762L61.018,185.896L61.046,186.03L61.075,186.162L61.105,186.295L61.134,186.427L61.164,186.558L61.195,186.689L61.226,186.82L61.257,186.95L61.288,187.08L61.32,187.209L61.352,187.338L61.385,187.466L61.417,187.594L61.451,187.722L61.484,187.849L61.518,187.975L61.552,188.101L61.587,188.226L61.622,188.351L61.657,188.476L61.693,188.6L61.729,188.723L61.765,188.846L61.801,188.969L61.838,189.091L61.876,189.212L61.913,189.333L61.951,189.453L61.989,189.573L62.028,189.693L62.067,189.811L62.106,189.93L62.145,190.048L62.185,190.165L62.225,190.281L62.266,190.398L62.307,190.513L62.348,190.628L62.389,190.743L62.431,190.857L62.473,190.97L62.515,191.083L62.558,191.195L62.601,191.307L62.644,191.418L62.688,191.529L62.732,191.639L62.776,191.748L62.82,191.857L62.865,191.966L62.91,192.073L62.955,192.18L63.001,192.287L63.047,192.393L63.093,192.498L63.14,192.603L63.187,192.707L63.234,192.811L63.281,192.914L63.329,193.016L63.377,193.118L63.425,193.219L63.473,193.319L63.522,193.419L63.571,193.518L63.62,193.617L63.67,193.715L63.72,193.812L63.77,193.909L63.82,194.005L63.871,194.1L63.922,194.195L63.973,194.289L64.025,194.382L64.077,194.475L64.129,194.567L64.181,194.659L64.233,194.75L64.286,194.84L64.339,194.929L64.392,195.018L64.446,195.106L64.5,195.193L64.554,195.28L64.608,195.366L64.663,195.452L64.717,195.536L64.772,195.62L64.828,195.704L64.883,195.786L64.939,195.868L64.995,195.949L65.051,196.03L65.108,196.109L65.164,196.188L65.221,196.267L65.278,196.344L65.336,196.421L65.393,196.497L65.451,196.573L65.509,196.647L65.568,196.721L65.626,196.795L65.685,196.867L65.744,196.939L65.803,197.01L65.863,197.08L65.922,197.149L65.982,197.218L66.042,197.286L66.102,197.353L66.163,197.42L66.224,197.485L66.284,197.55L66.346,197.614L66.407,197.677L66.468,197.74L66.53,197.802L66.592,197.863L66.654,197.923L66.716,197.982L66.779,198.041L66.842,198.099L66.905,198.156L66.968,198.212L67.031,198.267L67.095,198.322L67.158,198.376L67.222,198.428L67.286,198.481L67.35,198.532L67.415,198.582L67.48,198.632L67.544,198.681L67.609,198.729L67.674,198.776L67.74,198.822L67.805,198.868L67.871,198.912L67.937,198.956L68.003,198.999L68.069,199.041L68.135,199.082L68.202,199.122L68.269,199.162L68.336,199.201L68.403,199.238L68.47,199.275L68.537,199.311L68.605,199.346L68.672,199.38L68.74,199.414L68.808,199.446L68.876,199.478L68.945,199.508L69.013,199.538L69.082,199.567L69.15,199.595L69.219,199.622L69.288,199.648L69.357,199.673L69.427,199.698L69.496,199.721L69.566,199.744L69.635,199.765L69.705,199.786L69.775,199.806L69.846,199.824L69.916,199.842L69.986,199.859L70.057,199.875L70.127,199.89L70.198,199.904L70.269,199.917L70.34,199.929L70.411,199.941L70.483,199.951L70.554,199.96L70.626,199.969L70.697,199.976L70.769,199.982L70.841,199.988L70.913,199.992L70.985,199.996L71.057,199.998L71.13,200L71.202,200L138,200L138,151.611L71.201,151.611Z"/>
        </g>
        <g id="background" transform="matrix(2.8464,0,0,1.3179,-163.699,-33.3795)">
            <path d="M138,151.611C138,151.611 92.779,151.611 71.201,151.611C65.015,151.611 60,162.443 60,175.804C60,175.804 60,175.805 60,175.806C60,189.168 65.015,200 71.202,200C92.78,200 138,200 138,200L138,151.611Z" style="fill:#fcfbfb;"/>
            <path d="M138.258,146.664L138.513,146.758L138.761,146.912L139,147.126L139.226,147.396L139.437,147.719L139.63,148.091L139.802,148.507L139.952,148.963L140.077,149.451L140.176,149.967L140.247,150.503L140.29,151.054L140.305,151.611L140.305,200L140.29,200.557L140.247,201.108L140.176,201.644L140.077,202.16L139.952,202.649L139.802,203.104L139.63,203.52L139.437,203.892L139.226,204.215L139,204.485L138.761,204.699L138.513,204.853L138.258,204.947L138,204.978L71.198,204.978L71.115,204.978L71.028,204.976L70.941,204.973L70.855,204.969L70.768,204.963L70.682,204.957L70.595,204.949L70.509,204.94L70.423,204.93L70.337,204.919L70.251,204.907L70.165,204.893L70.08,204.879L69.994,204.863L69.909,204.846L69.824,204.828L69.739,204.809L69.654,204.788L69.569,204.767L69.485,204.744L69.4,204.72L69.316,204.696L69.232,204.67L69.148,204.642L69.064,204.614L68.981,204.585L68.897,204.554L68.814,204.523L68.731,204.49L68.648,204.456L68.565,204.422L68.482,204.386L68.4,204.349L68.318,204.311L68.236,204.271L68.154,204.231L68.072,204.19L67.991,204.147L67.909,204.104L67.828,204.06L67.747,204.014L67.666,203.967L67.586,203.92L67.506,203.871L67.426,203.821L67.346,203.771L67.266,203.719L67.186,203.666L67.107,203.612L67.028,203.557L66.949,203.501L66.87,203.444L66.792,203.386L66.714,203.328L66.636,203.268L66.558,203.207L66.48,203.145L66.403,203.082L66.326,203.018L66.249,202.953L66.172,202.887L66.096,202.82L66.02,202.752L65.944,202.684L65.868,202.614L65.793,202.543L65.717,202.472L65.642,202.399L65.568,202.325L65.493,202.251L65.419,202.175L65.345,202.099L65.271,202.022L65.198,201.943L65.125,201.864L65.052,201.784L64.979,201.703L64.906,201.621L64.834,201.538L64.762,201.454L64.691,201.37L64.619,201.284L64.548,201.198L64.477,201.11L64.407,201.022L64.336,200.933L64.266,200.843L64.196,200.752L64.127,200.66L64.058,200.567L63.989,200.474L63.92,200.379L63.852,200.284L63.784,200.188L63.716,200.091L63.649,199.993L63.581,199.894L63.514,199.795L63.448,199.694L63.382,199.593L63.316,199.491L63.25,199.388L63.184,199.285L63.119,199.18L63.054,199.075L62.99,198.969L62.926,198.862L62.862,198.754L62.798,198.645L62.735,198.536L62.672,198.426L62.609,198.315L62.547,198.203L62.485,198.09L62.423,197.977L62.362,197.863L62.301,197.748L62.24,197.632L62.18,197.516L62.12,197.399L62.06,197.281L62.001,197.162L61.942,197.042L61.883,196.922L61.824,196.801L61.766,196.679L61.709,196.557L61.651,196.434L61.594,196.31L61.537,196.185L61.481,196.06L61.425,195.934L61.369,195.807L61.314,195.679L61.259,195.551L61.204,195.422L61.15,195.292L61.096,195.162L61.043,195.03L60.989,194.898L60.937,194.766L60.884,194.633L60.832,194.499L60.78,194.364L60.729,194.229L60.678,194.093L60.627,193.956L60.577,193.819L60.527,193.681L60.478,193.542L60.428,193.403L60.38,193.263L60.331,193.122L60.283,192.981L60.236,192.839L60.188,192.696L60.141,192.553L60.095,192.409L60.049,192.265L60.003,192.12L59.958,191.974L59.913,191.828L59.868,191.681L59.824,191.533L59.781,191.385L59.737,191.236L59.694,191.086L59.652,190.936L59.61,190.786L59.568,190.635L59.527,190.483L59.486,190.33L59.445,190.177L59.405,190.024L59.366,189.869L59.327,189.714L59.288,189.559L59.249,189.403L59.212,189.247L59.174,189.09L59.137,188.932L59.1,188.774L59.064,188.615L59.028,188.456L58.993,188.296L58.958,188.136L58.923,187.975L58.889,187.813L58.856,187.651L58.822,187.489L58.79,187.326L58.757,187.162L58.726,186.998L58.694,186.834L58.663,186.669L58.633,186.503L58.603,186.337L58.573,186.171L58.544,186.004L58.515,185.836L58.487,185.668L58.459,185.5L58.432,185.331L58.405,185.161L58.379,184.991L58.353,184.821L58.328,184.65L58.303,184.479L58.278,184.307L58.254,184.135L58.231,183.962L58.208,183.789L58.185,183.616L58.163,183.442L58.141,183.267L58.12,183.093L58.1,182.917L58.08,182.742L58.06,182.566L58.041,182.389L58.022,182.213L58.004,182.035L57.987,181.858L57.969,181.68L57.953,181.501L57.937,181.322L57.921,181.143L57.906,180.964L57.891,180.784L57.877,180.604L57.864,180.423L57.851,180.242L57.838,180.061L57.826,179.879L57.814,179.697L57.803,179.515L57.793,179.332L57.783,179.149L57.774,178.966L57.765,178.782L57.756,178.598L57.748,178.414L57.741,178.23L57.734,178.045L57.728,177.86L57.722,177.674L57.717,177.489L57.713,177.303L57.708,177.116L57.705,176.93L57.702,176.743L57.699,176.556L57.697,176.369L57.696,176.181L57.695,175.994L57.695,175.813L57.695,175.796L57.695,175.616L57.696,175.428L57.697,175.241L57.699,175.053L57.702,174.866L57.705,174.68L57.708,174.493L57.713,174.307L57.717,174.121L57.722,173.935L57.728,173.75L57.734,173.565L57.741,173.38L57.748,173.195L57.756,173.011L57.765,172.827L57.774,172.644L57.783,172.46L57.793,172.277L57.803,172.095L57.814,171.912L57.826,171.731L57.838,171.549L57.851,171.368L57.864,171.187L57.877,171.006L57.891,170.826L57.906,170.646L57.921,170.466L57.937,170.287L57.953,170.109L57.969,169.93L57.987,169.752L58.004,169.575L58.022,169.397L58.041,169.22L58.06,169.044L58.08,168.868L58.1,168.692L58.12,168.517L58.141,168.342L58.163,168.168L58.185,167.994L58.208,167.821L58.231,167.648L58.254,167.475L58.278,167.303L58.303,167.131L58.328,166.96L58.353,166.789L58.379,166.619L58.405,166.449L58.432,166.279L58.459,166.11L58.487,165.942L58.515,165.774L58.544,165.606L58.573,165.439L58.603,165.273L58.633,165.107L58.663,164.941L58.694,164.776L58.726,164.612L58.757,164.448L58.79,164.284L58.822,164.121L58.856,163.959L58.889,163.797L58.923,163.635L58.958,163.475L58.993,163.314L59.028,163.154L59.064,162.995L59.1,162.836L59.137,162.678L59.174,162.521L59.211,162.363L59.249,162.207L59.288,162.051L59.327,161.896L59.366,161.741L59.405,161.587L59.445,161.433L59.486,161.28L59.527,161.128L59.568,160.976L59.61,160.825L59.652,160.674L59.694,160.524L59.737,160.374L59.781,160.226L59.824,160.077L59.868,159.93L59.913,159.783L59.958,159.636L60.003,159.491L60.049,159.345L60.095,159.201L60.141,159.057L60.188,158.914L60.235,158.771L60.283,158.629L60.331,158.488L60.379,158.347L60.428,158.207L60.477,158.068L60.527,157.93L60.577,157.792L60.627,157.654L60.678,157.518L60.729,157.382L60.78,157.246L60.832,157.112L60.884,156.978L60.936,156.845L60.989,156.712L61.042,156.58L61.096,156.449L61.15,156.319L61.204,156.189L61.259,156.06L61.314,155.932L61.369,155.804L61.425,155.677L61.481,155.551L61.537,155.426L61.594,155.301L61.651,155.177L61.708,155.054L61.766,154.931L61.824,154.809L61.883,154.688L61.941,154.568L62,154.449L62.06,154.33L62.12,154.212L62.18,154.095L62.24,153.978L62.301,153.863L62.362,153.748L62.423,153.634L62.485,153.52L62.547,153.408L62.609,153.296L62.672,153.185L62.735,153.075L62.798,152.965L62.862,152.857L62.925,152.749L62.99,152.642L63.054,152.536L63.119,152.431L63.184,152.326L63.249,152.222L63.315,152.12L63.381,152.018L63.447,151.916L63.514,151.816L63.581,151.716L63.648,151.618L63.716,151.52L63.783,151.423L63.852,151.327L63.92,151.232L63.989,151.137L64.057,151.044L64.127,150.951L64.196,150.859L64.266,150.768L64.336,150.678L64.406,150.589L64.477,150.501L64.548,150.413L64.619,150.327L64.69,150.241L64.762,150.157L64.834,150.073L64.906,149.99L64.978,149.908L65.051,149.827L65.124,149.747L65.197,149.668L65.271,149.589L65.344,149.512L65.419,149.436L65.493,149.36L65.567,149.286L65.642,149.212L65.717,149.139L65.792,149.068L65.868,148.997L65.943,148.927L66.019,148.859L66.095,148.791L66.172,148.724L66.249,148.658L66.325,148.593L66.403,148.529L66.48,148.466L66.557,148.404L66.635,148.343L66.713,148.284L66.791,148.225L66.87,148.167L66.949,148.11L67.027,148.054L67.106,147.999L67.186,147.945L67.265,147.892L67.345,147.841L67.425,147.79L67.505,147.74L67.585,147.691L67.666,147.644L67.747,147.597L67.828,147.552L67.909,147.507L67.99,147.464L68.072,147.421L68.153,147.38L68.235,147.34L68.317,147.301L68.399,147.262L68.482,147.225L68.564,147.19L68.647,147.155L68.73,147.121L68.813,147.088L68.896,147.057L68.98,147.026L69.064,146.997L69.147,146.969L69.231,146.942L69.315,146.916L69.4,146.891L69.484,146.867L69.569,146.844L69.653,146.823L69.738,146.803L69.823,146.783L69.908,146.765L69.994,146.748L70.079,146.732L70.165,146.718L70.25,146.704L70.336,146.692L70.422,146.681L70.508,146.671L70.594,146.662L70.681,146.654L70.767,146.648L70.854,146.642L70.941,146.638L71.027,146.635L71.114,146.633L71.198,146.633L138,146.633L138.258,146.664ZM71.201,151.611L71.129,151.612L71.057,151.613L70.984,151.616L70.912,151.619L70.84,151.624L70.768,151.629L70.697,151.635L70.625,151.643L70.553,151.651L70.482,151.66L70.411,151.671L70.339,151.682L70.268,151.694L70.197,151.707L70.127,151.721L70.056,151.736L69.985,151.752L69.915,151.769L69.845,151.787L69.775,151.806L69.705,151.825L69.635,151.846L69.565,151.867L69.495,151.89L69.426,151.913L69.357,151.938L69.288,151.963L69.218,151.989L69.15,152.016L69.081,152.044L69.012,152.073L68.944,152.103L68.876,152.133L68.807,152.165L68.739,152.197L68.672,152.231L68.604,152.265L68.536,152.3L68.469,152.336L68.402,152.373L68.335,152.411L68.268,152.449L68.201,152.489L68.135,152.529L68.068,152.57L68.002,152.612L67.936,152.655L67.87,152.699L67.805,152.743L67.739,152.789L67.674,152.835L67.609,152.882L67.544,152.93L67.479,152.979L67.414,153.029L67.35,153.079L67.286,153.13L67.222,153.183L67.158,153.236L67.094,153.289L67.031,153.344L66.967,153.399L66.904,153.455L66.841,153.512L66.779,153.57L66.716,153.629L66.654,153.688L66.592,153.748L66.53,153.809L66.468,153.871L66.406,153.934L66.345,153.997L66.284,154.061L66.223,154.126L66.162,154.191L66.102,154.258L66.042,154.325L65.982,154.393L65.922,154.462L65.862,154.531L65.803,154.601L65.743,154.672L65.685,154.744L65.626,154.816L65.567,154.89L65.509,154.964L65.451,155.038L65.393,155.114L65.335,155.19L65.278,155.267L65.221,155.344L65.164,155.423L65.107,155.502L65.051,155.581L64.995,155.662L64.939,155.743L64.883,155.825L64.827,155.907L64.772,155.991L64.717,156.075L64.662,156.159L64.608,156.245L64.553,156.331L64.499,156.417L64.446,156.505L64.392,156.593L64.339,156.682L64.286,156.771L64.233,156.861L64.18,156.952L64.128,157.043L64.076,157.136L64.025,157.228L63.973,157.322L63.922,157.416L63.871,157.511L63.82,157.606L63.77,157.702L63.72,157.799L63.67,157.896L63.62,157.994L63.571,158.093L63.522,158.192L63.473,158.292L63.425,158.392L63.376,158.493L63.328,158.595L63.281,158.697L63.233,158.8L63.186,158.903L63.14,159.008L63.093,159.112L63.047,159.218L63.001,159.324L62.955,159.43L62.91,159.537L62.865,159.645L62.82,159.753L62.776,159.862L62.731,159.972L62.688,160.082L62.644,160.192L62.601,160.303L62.558,160.415L62.515,160.527L62.473,160.64L62.431,160.754L62.389,160.868L62.348,160.982L62.307,161.097L62.266,161.213L62.225,161.329L62.185,161.446L62.145,161.563L62.106,161.681L62.067,161.799L62.028,161.918L61.989,162.037L61.951,162.157L61.913,162.277L61.875,162.398L61.838,162.52L61.801,162.642L61.765,162.764L61.728,162.887L61.692,163.011L61.657,163.135L61.622,163.259L61.587,163.384L61.552,163.509L61.518,163.635L61.484,163.762L61.45,163.889L61.417,164.016L61.384,164.144L61.352,164.272L61.32,164.401L61.288,164.53L61.257,164.66L61.225,164.79L61.195,164.921L61.164,165.052L61.134,165.183L61.105,165.315L61.075,165.448L61.046,165.581L61.018,165.714L60.989,165.848L60.962,165.982L60.934,166.116L60.907,166.251L60.88,166.387L60.854,166.523L60.828,166.659L60.802,166.796L60.777,166.933L60.752,167.071L60.728,167.208L60.703,167.347L60.68,167.486L60.656,167.625L60.633,167.764L60.611,167.904L60.589,168.045L60.567,168.185L60.545,168.326L60.524,168.468L60.504,168.61L60.483,168.752L60.463,168.894L60.444,169.037L60.425,169.181L60.406,169.324L60.388,169.469L60.37,169.613L60.353,169.758L60.336,169.903L60.319,170.048L60.303,170.194L60.287,170.34L60.271,170.487L60.256,170.634L60.242,170.781L60.228,170.928L60.214,171.076L60.2,171.224L60.187,171.373L60.175,171.521L60.163,171.67L60.151,171.82L60.14,171.969L60.129,172.12L60.119,172.27L60.109,172.42L60.099,172.571L60.09,172.723L60.081,172.874L60.073,173.026L60.065,173.178L60.058,173.33L60.051,173.483L60.044,173.636L60.038,173.789L60.033,173.942L60.027,174.096L60.023,174.25L60.018,174.404L60.015,174.559L60.011,174.714L60.008,174.869L60.006,175.024L60.004,175.179L60.002,175.335L60.001,175.491L60,175.647L60,175.804L60,175.962L60.001,176.118L60.002,176.274L60.004,176.43L60.006,176.586L60.008,176.741L60.011,176.896L60.015,177.051L60.018,177.205L60.023,177.359L60.027,177.513L60.033,177.667L60.038,177.821L60.044,177.974L60.051,178.127L60.058,178.279L60.065,178.432L60.073,178.584L60.081,178.736L60.09,178.887L60.099,179.038L60.109,179.189L60.119,179.34L60.129,179.49L60.14,179.64L60.151,179.79L60.163,179.939L60.175,180.088L60.187,180.237L60.2,180.386L60.214,180.534L60.228,180.682L60.242,180.829L60.256,180.976L60.271,181.123L60.287,181.27L60.303,181.416L60.319,181.562L60.336,181.707L60.353,181.852L60.37,181.997L60.388,182.141L60.406,182.285L60.425,182.429L60.444,182.572L60.464,182.715L60.483,182.858L60.504,183L60.524,183.142L60.545,183.284L60.567,183.425L60.589,183.565L60.611,183.706L60.633,183.846L60.656,183.985L60.68,184.124L60.703,184.263L60.728,184.402L60.752,184.54L60.777,184.677L60.802,184.814L60.828,184.951L60.854,185.087L60.88,185.223L60.907,185.359L60.934,185.494L60.962,185.628L60.99,185.762L61.018,185.896L61.046,186.03L61.075,186.162L61.105,186.295L61.134,186.427L61.164,186.558L61.195,186.689L61.226,186.82L61.257,186.95L61.288,187.08L61.32,187.209L61.352,187.338L61.385,187.466L61.417,187.594L61.451,187.722L61.484,187.849L61.518,187.975L61.552,188.101L61.587,188.226L61.622,188.351L61.657,188.476L61.693,188.6L61.729,188.723L61.765,188.846L61.801,188.969L61.838,189.091L61.876,189.212L61.913,189.333L61.951,189.453L61.989,189.573L62.028,189.693L62.067,189.811L62.106,189.93L62.145,190.048L62.185,190.165L62.225,190.281L62.266,190.398L62.307,190.513L62.348,190.628L62.389,190.743L62.431,190.857L62.473,190.97L62.515,191.083L62.558,191.195L62.601,191.307L62.644,191.418L62.688,191.529L62.732,191.639L62.776,191.748L62.82,191.857L62.865,191.966L62.91,192.073L62.955,192.18L63.001,192.287L63.047,192.393L63.093,192.498L63.14,192.603L63.187,192.707L63.234,192.811L63.281,192.914L63.329,193.016L63.377,193.118L63.425,193.219L63.473,193.319L63.522,193.419L63.571,193.518L63.62,193.617L63.67,193.715L63.72,193.812L63.77,193.909L63.82,194.005L63.871,194.1L63.922,194.195L63.973,194.289L64.025,194.382L64.077,194.475L64.129,194.567L64.181,194.659L64.233,194.75L64.286,194.84L64.339,194.929L64.392,195.018L64.446,195.106L64.5,195.193L64.554,195.28L64.608,195.366L64.663,195.452L64.717,195.536L64.772,195.62L64.828,195.704L64.883,195.786L64.939,195.868L64.995,195.949L65.051,196.03L65.108,196.109L65.164,196.188L65.221,196.267L65.278,196.344L65.336,196.421L65.393,196.497L65.451,196.573L65.509,196.647L65.568,196.721L65.626,196.795L65.685,196.867L65.744,196.939L65.803,197.01L65.863,197.08L65.922,197.149L65.982,197.218L66.042,197.286L66.102,197.353L66.163,197.42L66.224,197.485L66.284,197.55L66.346,197.614L66.407,197.677L66.468,197.74L66.53,197.802L66.592,197.863L66.654,197.923L66.716,197.982L66.779,198.041L66.842,198.099L66.905,198.156L66.968,198.212L67.031,198.267L67.095,198.322L67.158,198.376L67.222,198.428L67.286,198.481L67.35,198.532L67.415,198.582L67.48,198.632L67.544,198.681L67.609,198.729L67.674,198.776L67.74,198.822L67.805,198.868L67.871,198.912L67.937,198.956L68.003,198.999L68.069,199.041L68.135,199.082L68.202,199.122L68.269,199.162L68.336,199.201L68.403,199.238L68.47,199.275L68.537,199.311L68.605,199.346L68.672,199.38L68.74,199.414L68.808,199.446L68.876,199.478L68.945,199.508L69.013,199.538L69.082,199.567L69.15,199.595L69.219,199.622L69.288,199.648L69.357,199.673L69.427,199.698L69.496,199.721L69.566,199.744L69.635,199.765L69.705,199.786L69.775,199.806L69.846,199.824L69.916,199.842L69.986,199.859L70.057,199.875L70.127,199.89L70.198,199.904L70.269,199.917L70.34,199.929L70.411,199.941L70.483,199.951L70.554,199.96L70.626,199.969L70.697,199.976L70.769,199.982L70.841,199.988L70.913,199.992L70.985,199.996L71.057,199.998L71.13,200L71.202,200L138,200L138,151.611L71.201,151.611Z"/>
        </g>
        <g id="pin" transform="matrix(1.99286,0,0,2.12572,-42.7358,-153.492)">
            <path d="M41.145,154.914L41.29,154.917L41.434,154.921L41.578,154.927L41.722,154.935L41.865,154.944L42.008,154.955L42.15,154.968L42.293,154.982L42.434,154.999L42.575,155.016L42.715,155.035L42.855,155.056L42.995,155.079L43.134,155.103L43.272,155.129L43.41,155.156L43.547,155.185L43.684,155.215L43.819,155.247L43.955,155.281L44.089,155.316L44.223,155.352L44.356,155.39L44.489,155.43L44.621,155.471L44.752,155.513L44.882,155.557L45.012,155.603L45.141,155.65L45.269,155.698L45.396,155.747L45.522,155.798L45.648,155.851L45.773,155.905L45.897,155.96L46.02,156.016L46.142,156.074L46.264,156.133L46.384,156.194L46.504,156.256L46.622,156.319L46.74,156.383L46.857,156.449L46.973,156.516L47.088,156.584L47.202,156.654L47.315,156.724L47.427,156.796L47.538,156.869L47.648,156.944L47.757,157.019L47.865,157.096L47.972,157.174L48.078,157.253L48.183,157.333L48.287,157.415L48.39,157.497L48.492,157.581L48.592,157.665L48.692,157.751L48.79,157.838L48.888,157.926L48.984,158.015L49.079,158.105L49.173,158.197L49.265,158.289L49.357,158.382L49.447,158.477L49.537,158.572L49.624,158.668L49.711,158.766L49.797,158.864L49.881,158.963L49.964,159.064L50.046,159.165L50.127,159.267L50.206,159.37L50.284,159.475L50.361,159.58L50.436,159.686L50.51,159.792L50.583,159.9L50.654,160.009L50.724,160.119L50.793,160.229L50.86,160.34L50.926,160.452L50.991,160.565L51.054,160.679L51.116,160.794L51.176,160.909L51.235,161.025L51.292,161.142L51.348,161.26L51.403,161.379L51.456,161.498L51.507,161.618L51.557,161.739L51.605,161.86L51.652,161.983L51.698,162.105L51.741,162.229L51.784,162.353L51.824,162.478L51.863,162.604L51.9,162.73L51.936,162.857L51.97,162.984L52.003,163.112L52.033,163.241L52.063,163.37L52.09,163.5L52.116,163.63L52.14,163.761L52.162,163.892L52.183,164.023L52.202,164.156L52.219,164.288L52.234,164.421L52.248,164.555L52.259,164.689L52.269,164.823L52.278,164.958L52.284,165.093L52.289,165.228L52.291,165.364L52.292,165.5L52.291,165.636L52.289,165.772L52.284,165.907L52.278,166.042L52.269,166.177L52.259,166.311L52.248,166.445L52.234,166.579L52.219,166.712L52.202,166.844L52.183,166.977L52.162,167.108L52.14,167.239L52.116,167.37L52.09,167.5L52.063,167.63L52.033,167.759L52.003,167.888L51.97,168.016L51.936,168.143L51.9,168.27L51.863,168.396L51.824,168.522L51.784,168.647L51.741,168.771L51.698,168.894L51.652,169.017L51.605,169.14L51.557,169.261L51.507,169.382L51.456,169.502L51.403,169.621L51.348,169.74L51.292,169.858L51.235,169.975L51.176,170.091L51.116,170.206L51.054,170.321L50.991,170.435L50.926,170.548L50.86,170.66L50.793,170.771L50.724,170.881L50.654,170.991L50.583,171.1L50.51,171.207L50.436,171.314L50.361,171.42L50.284,171.525L50.206,171.63L50.127,171.733L50.046,171.835L49.964,171.936L49.881,172.037L49.797,172.136L49.711,172.234L49.624,172.332L49.537,172.428L49.447,172.523L49.357,172.618L49.265,172.711L49.173,172.803L49.079,172.895L48.984,172.985L48.888,173.074L48.79,173.162L48.692,173.249L48.592,173.335L48.492,173.419L48.39,173.503L48.287,173.585L48.183,173.667L48.078,173.747L47.972,173.826L47.865,173.904L47.757,173.981L47.648,174.056L47.538,174.131L47.427,174.204L47.315,174.276L47.202,174.346L47.088,174.416L46.973,174.484L46.857,174.551L46.74,174.617L46.622,174.681L46.504,174.744L46.384,174.806L46.264,174.867L46.142,174.926L46.02,174.984L45.897,175.04L45.773,175.095L45.648,175.149L45.522,175.202L45.396,175.253L45.269,175.302L45.141,175.35L45.012,175.397L44.882,175.443L44.752,175.487L44.621,175.529L44.489,175.57L44.356,175.61L44.223,175.648L44.089,175.684L43.955,175.719L43.819,175.753L43.684,175.785L43.547,175.815L43.41,175.844L43.272,175.871L43.134,175.897L42.995,175.921L42.856,175.944L42.715,175.965L42.575,175.984L42.434,176.001L42.292,176.018L42.151,176.032L42.008,176.045L41.865,176.056L41.722,176.065L41.578,176.073L41.434,176.079L41.29,176.083L41.145,176.086L41,176.086L40.855,176.086L40.71,176.083L40.566,176.079L40.422,176.073L40.278,176.065L40.135,176.056L39.992,176.045L39.849,176.032L39.708,176.018L39.566,176.001L39.425,175.984L39.285,175.965L39.144,175.944L39.005,175.921L38.866,175.897L38.728,175.871L38.59,175.844L38.453,175.815L38.316,175.785L38.181,175.753L38.045,175.719L37.911,175.684L37.777,175.648L37.644,175.61L37.511,175.57L37.379,175.529L37.248,175.487L37.118,175.443L36.988,175.397L36.859,175.35L36.731,175.302L36.604,175.253L36.478,175.202L36.352,175.149L36.227,175.095L36.103,175.04L35.98,174.984L35.858,174.926L35.736,174.867L35.616,174.806L35.496,174.744L35.378,174.681L35.26,174.617L35.143,174.551L35.027,174.484L34.912,174.416L34.798,174.346L34.685,174.276L34.573,174.204L34.462,174.131L34.352,174.056L34.243,173.981L34.135,173.904L34.028,173.826L33.922,173.747L33.817,173.667L33.713,173.585L33.61,173.503L33.508,173.419L33.408,173.335L33.308,173.249L33.21,173.162L33.112,173.074L33.016,172.985L32.921,172.895L32.827,172.803L32.735,172.711L32.643,172.618L32.553,172.523L32.464,172.428L32.376,172.332L32.289,172.234L32.203,172.136L32.119,172.037L32.036,171.936L31.954,171.835L31.873,171.733L31.794,171.63L31.716,171.525L31.639,171.42L31.564,171.314L31.49,171.207L31.417,171.1L31.346,170.991L31.276,170.881L31.207,170.771L31.14,170.66L31.074,170.548L31.009,170.435L30.946,170.321L30.884,170.206L30.824,170.091L30.765,169.975L30.708,169.858L30.652,169.74L30.597,169.621L30.544,169.502L30.493,169.382L30.443,169.261L30.395,169.14L30.348,169.017L30.302,168.894L30.259,168.771L30.216,168.647L30.176,168.522L30.137,168.396L30.1,168.27L30.064,168.143L30.03,168.016L29.997,167.888L29.967,167.759L29.937,167.63L29.91,167.5L29.884,167.37L29.86,167.239L29.838,167.108L29.817,166.977L29.798,166.844L29.781,166.712L29.766,166.579L29.752,166.445L29.741,166.311L29.731,166.177L29.722,166.042L29.716,165.907L29.711,165.772L29.709,165.636L29.708,165.5L29.709,165.364L29.711,165.228L29.716,165.093L29.722,164.958L29.731,164.823L29.741,164.689L29.752,164.555L29.766,164.421L29.781,164.288L29.798,164.156L29.817,164.023L29.838,163.892L29.86,163.761L29.884,163.63L29.91,163.5L29.937,163.37L29.967,163.241L29.997,163.112L30.03,162.984L30.064,162.857L30.1,162.73L30.137,162.604L30.176,162.478L30.216,162.353L30.259,162.229L30.302,162.106L30.348,161.983L30.395,161.86L30.443,161.739L30.493,161.618L30.544,161.498L30.597,161.379L30.652,161.26L30.708,161.142L30.765,161.025L30.824,160.909L30.884,160.794L30.946,160.679L31.009,160.565L31.074,160.452L31.14,160.34L31.207,160.229L31.276,160.119L31.346,160.009L31.417,159.9L31.49,159.793L31.564,159.686L31.639,159.58L31.716,159.475L31.794,159.37L31.873,159.267L31.954,159.165L32.036,159.064L32.119,158.963L32.203,158.864L32.289,158.766L32.376,158.668L32.464,158.572L32.553,158.477L32.643,158.382L32.735,158.289L32.827,158.197L32.921,158.105L33.016,158.015L33.112,157.926L33.21,157.838L33.308,157.751L33.408,157.665L33.508,157.581L33.61,157.497L33.713,157.415L33.817,157.333L33.922,157.253L34.028,157.174L34.135,157.096L34.243,157.019L34.352,156.944L34.462,156.869L34.573,156.796L34.685,156.724L34.798,156.654L34.912,156.584L35.027,156.516L35.143,156.449L35.26,156.383L35.378,156.319L35.496,156.256L35.616,156.194L35.736,156.133L35.858,156.074L35.98,156.016L36.103,155.96L36.227,155.905L36.352,155.851L36.478,155.798L36.604,155.747L36.731,155.698L36.859,155.65L36.988,155.603L37.118,155.557L37.248,155.513L37.379,155.471L37.511,155.43L37.644,155.39L37.777,155.352L37.911,155.316L38.045,155.281L38.181,155.247L38.316,155.215L38.453,155.185L38.59,155.156L38.728,155.129L38.866,155.103L39.005,155.079L39.145,155.056L39.285,155.035L39.425,155.016L39.566,154.999L39.707,154.982L39.85,154.968L39.992,154.955L40.135,154.944L40.278,154.935L40.422,154.927L40.566,154.921L40.71,154.917L40.855,154.914L41,154.914L41.145,154.914ZM40.897,158.001L40.794,158.002L40.691,158.006L40.589,158.01L40.487,158.015L40.385,158.022L40.284,158.03L40.183,158.039L40.082,158.049L39.982,158.06L39.882,158.073L39.782,158.086L39.683,158.101L39.585,158.117L39.486,158.134L39.389,158.152L39.291,158.172L39.194,158.192L39.098,158.214L39.002,158.236L38.906,158.26L38.811,158.285L38.716,158.311L38.622,158.337L38.528,158.365L38.435,158.394L38.343,158.424L38.251,158.455L38.159,158.487L38.068,158.521L37.977,158.555L37.887,158.59L37.798,158.626L37.709,158.663L37.621,158.701L37.533,158.74L37.446,158.78L37.359,158.821L37.273,158.863L37.188,158.906L37.103,158.95L37.019,158.994L36.936,159.04L36.853,159.086L36.771,159.134L36.689,159.182L36.609,159.231L36.528,159.282L36.449,159.333L36.37,159.384L36.292,159.437L36.215,159.491L36.138,159.545L36.062,159.601L35.987,159.657L35.912,159.714L35.839,159.771L35.766,159.83L35.694,159.889L35.622,159.949L35.551,160.01L35.482,160.072L35.413,160.134L35.344,160.198L35.277,160.262L35.21,160.327L35.144,160.392L35.079,160.458L35.015,160.525L34.952,160.593L34.889,160.661L34.828,160.73L34.767,160.8L34.707,160.871L34.648,160.942L34.59,161.014L34.533,161.086L34.477,161.16L34.421,161.233L34.367,161.308L34.314,161.383L34.261,161.459L34.209,161.535L34.159,161.612L34.109,161.69L34.061,161.768L34.013,161.847L33.966,161.926L33.92,162.006L33.876,162.087L33.832,162.168L33.789,162.25L33.748,162.332L33.707,162.415L33.668,162.498L33.629,162.582L33.592,162.666L33.555,162.751L33.52,162.836L33.486,162.922L33.453,163.009L33.421,163.096L33.39,163.183L33.36,163.271L33.331,163.359L33.304,163.448L33.277,163.537L33.252,163.627L33.228,163.717L33.205,163.807L33.183,163.898L33.163,163.989L33.143,164.081L33.125,164.173L33.108,164.266L33.092,164.358L33.078,164.452L33.064,164.545L33.052,164.639L33.041,164.734L33.032,164.828L33.023,164.923L33.016,165.019L33.01,165.114L33.006,165.21L33.003,165.307L33.001,165.403L33,165.5L33.001,165.597L33.003,165.693L33.006,165.79L33.01,165.886L33.016,165.981L33.023,166.077L33.032,166.172L33.041,166.266L33.052,166.361L33.064,166.455L33.078,166.548L33.092,166.642L33.108,166.734L33.125,166.827L33.143,166.919L33.163,167.011L33.183,167.102L33.205,167.193L33.228,167.283L33.252,167.373L33.277,167.463L33.304,167.552L33.331,167.641L33.36,167.729L33.39,167.817L33.421,167.904L33.453,167.991L33.486,168.078L33.52,168.164L33.555,168.249L33.592,168.334L33.629,168.418L33.668,168.502L33.707,168.585L33.748,168.668L33.789,168.75L33.832,168.832L33.876,168.913L33.92,168.994L33.966,169.074L34.013,169.153L34.061,169.232L34.109,169.31L34.159,169.388L34.209,169.465L34.261,169.541L34.314,169.617L34.367,169.692L34.421,169.767L34.477,169.84L34.533,169.914L34.59,169.986L34.648,170.058L34.707,170.129L34.767,170.2L34.828,170.27L34.889,170.339L34.952,170.407L35.015,170.475L35.079,170.542L35.144,170.608L35.21,170.673L35.277,170.738L35.344,170.802L35.413,170.866L35.482,170.928L35.551,170.99L35.622,171.051L35.694,171.111L35.766,171.17L35.839,171.229L35.912,171.286L35.987,171.343L36.062,171.399L36.138,171.455L36.215,171.509L36.292,171.563L36.37,171.616L36.449,171.667L36.528,171.718L36.609,171.769L36.689,171.818L36.771,171.866L36.853,171.914L36.936,171.96L37.019,172.006L37.103,172.05L37.188,172.094L37.273,172.137L37.359,172.179L37.446,172.22L37.533,172.26L37.621,172.299L37.709,172.337L37.798,172.374L37.887,172.41L37.977,172.445L38.068,172.479L38.159,172.513L38.251,172.545L38.343,172.576L38.435,172.606L38.528,172.635L38.622,172.663L38.716,172.689L38.811,172.715L38.906,172.74L39.002,172.764L39.098,172.786L39.194,172.808L39.291,172.828L39.389,172.848L39.486,172.866L39.585,172.883L39.683,172.899L39.782,172.914L39.882,172.927L39.982,172.94L40.082,172.951L40.183,172.961L40.284,172.97L40.385,172.978L40.487,172.985L40.589,172.99L40.691,172.994L40.794,172.998L40.897,172.999L41,173L41.103,172.999L41.206,172.998L41.309,172.994L41.411,172.99L41.513,172.985L41.615,172.978L41.716,172.97L41.817,172.961L41.918,172.951L42.018,172.94L42.118,172.927L42.218,172.914L42.317,172.899L42.415,172.883L42.514,172.866L42.611,172.848L42.709,172.828L42.806,172.808L42.902,172.786L42.998,172.764L43.094,172.74L43.189,172.715L43.284,172.689L43.378,172.663L43.472,172.635L43.565,172.606L43.657,172.576L43.749,172.545L43.841,172.513L43.932,172.479L44.023,172.445L44.113,172.41L44.202,172.374L44.291,172.337L44.379,172.299L44.467,172.26L44.554,172.22L44.641,172.179L44.727,172.137L44.812,172.094L44.897,172.05L44.981,172.006L45.064,171.96L45.147,171.914L45.229,171.866L45.311,171.818L45.391,171.769L45.472,171.718L45.551,171.667L45.63,171.616L45.708,171.563L45.785,171.509L45.862,171.455L45.938,171.399L46.013,171.343L46.088,171.286L46.161,171.229L46.234,171.17L46.306,171.111L46.378,171.051L46.449,170.99L46.518,170.928L46.587,170.866L46.656,170.802L46.723,170.738L46.79,170.673L46.856,170.608L46.921,170.542L46.985,170.475L47.048,170.407L47.111,170.339L47.172,170.27L47.233,170.2L47.293,170.129L47.352,170.058L47.41,169.986L47.467,169.914L47.523,169.84L47.579,169.767L47.633,169.692L47.686,169.617L47.739,169.541L47.791,169.465L47.841,169.388L47.891,169.31L47.939,169.232L47.987,169.153L48.034,169.074L48.08,168.994L48.124,168.913L48.168,168.832L48.211,168.75L48.252,168.668L48.293,168.585L48.332,168.502L48.371,168.418L48.408,168.334L48.445,168.249L48.48,168.164L48.514,168.078L48.547,167.991L48.579,167.904L48.61,167.817L48.64,167.729L48.669,167.641L48.696,167.552L48.723,167.463L48.748,167.373L48.772,167.283L48.795,167.193L48.817,167.102L48.837,167.011L48.857,166.919L48.875,166.827L48.892,166.734L48.908,166.642L48.922,166.548L48.936,166.455L48.948,166.361L48.959,166.266L48.968,166.172L48.977,166.077L48.984,165.981L48.99,165.886L48.994,165.79L48.997,165.693L48.999,165.597L49,165.5L48.999,165.403L48.997,165.307L48.994,165.21L48.99,165.114L48.984,165.019L48.977,164.923L48.968,164.828L48.959,164.734L48.948,164.639L48.936,164.545L48.922,164.452L48.908,164.358L48.892,164.266L48.875,164.173L48.857,164.081L48.837,163.989L48.817,163.898L48.795,163.807L48.772,163.717L48.748,163.627L48.723,163.537L48.696,163.448L48.669,163.359L48.64,163.271L48.61,163.183L48.579,163.096L48.547,163.009L48.514,162.922L48.48,162.836L48.445,162.751L48.408,162.666L48.371,162.582L48.332,162.498L48.293,162.415L48.252,162.332L48.211,162.25L48.168,162.168L48.124,162.087L48.08,162.006L48.034,161.926L47.987,161.847L47.939,161.768L47.891,161.69L47.841,161.612L47.791,161.535L47.739,161.459L47.686,161.383L47.633,161.308L47.579,161.233L47.523,161.16L47.467,161.086L47.41,161.014L47.352,160.942L47.293,160.871L47.233,160.8L47.172,160.73L47.111,160.661L47.048,160.593L46.985,160.525L46.921,160.458L46.856,160.392L46.79,160.327L46.723,160.262L46.656,160.198L46.587,160.134L46.518,160.072L46.449,160.01L46.378,159.949L46.306,159.889L46.234,159.83L46.161,159.771L46.088,159.714L46.013,159.657L45.938,159.601L45.862,159.545L45.785,159.491L45.708,159.437L45.63,159.384L45.551,159.333L45.472,159.282L45.391,159.231L45.311,159.182L45.229,159.134L45.147,159.086L45.064,159.04L44.981,158.994L44.897,158.95L44.812,158.906L44.727,158.863L44.641,158.821L44.554,158.78L44.467,158.74L44.379,158.701L44.291,158.663L44.202,158.626L44.113,158.59L44.023,158.555L43.932,158.521L43.841,158.487L43.749,158.455L43.657,158.424L43.565,158.394L43.472,158.365L43.378,158.337L43.284,158.311L43.189,158.285L43.094,158.26L42.998,158.236L42.902,158.214L42.806,158.192L42.709,158.172L42.611,158.152L42.514,158.134L42.415,158.117L42.317,158.101L42.218,158.086L42.118,158.073L42.018,158.06L41.918,158.049L41.817,158.039L41.716,158.03L41.615,158.022L41.513,158.015L41.411,158.01L41.309,158.006L41.206,158.002L41.103,158.001L41,158L40.897,158.001Z" style="fill:#1a1a1a;"/>
        </g>
    </g>
</svg>
