<svg width="100%" height="100%" viewBox="0 0 200 200" version="1.1" xmlns="http://www.w3.org/2000/svg" xmlns:xlink="http://www.w3.org/1999/xlink" xml:space="preserve" xmlns:serif="http://www.serif.com/" fill-rule="evenodd" clip-rule="evenodd" stroke-linejoin="round" stroke-miterlimit="1.41421"><g><path d="M18.398,8.8L11.602,8.8C11.359,8.8 11.199,8.64 11.199,8.402L11.199,1.601C11.199,1.12 10.879,0.8 10.398,0.8L8.801,0.8C8.32,0.8 8,1.12 8,1.601L8,8.402C8,8.64 7.84,8.8 7.602,8.8L0.801,8.8C0.32,8.8 0,9.12 0,9.601L0,11.198C0,11.679 0.32,11.999 0.801,11.999L7.602,11.999C7.84,11.999 8,12.159 8,12.402L8,19.198C8,19.679 8.32,19.999 8.801,19.999L10.398,19.999C10.879,19.999 11.199,19.679 11.199,19.198L11.199,12.402C11.199,12.159 11.359,11.999 11.602,11.999L18.398,11.999C18.879,11.999 19.199,11.679 19.199,11.198L19.199,9.601C19.199,9.12 18.879,8.8 18.398,8.8Z" transform="matrix(10.4172,0,0,10.4172,0,-8.33377)" fill-rule="nonzero"/></g></svg>