<?xml version="1.0" encoding="UTF-8" standalone="no"?>
<!DOCTYPE svg PUBLIC "-//W3C//DTD SVG 1.1//EN" "http://www.w3.org/Graphics/SVG/1.1/DTD/svg11.dtd">
<svg width="100%" height="100%" viewBox="0 0 64 64" version="1.1" xmlns="http://www.w3.org/2000/svg" xmlns:xlink="http://www.w3.org/1999/xlink" xml:space="preserve" xmlns:serif="http://www.serif.com/" style="fill-rule:evenodd;clip-rule:evenodd;stroke-linecap:round;stroke-linejoin:round;stroke-miterlimit:1.5;">
    <path id="me" d="M16.727,9.113C16.663,8.977 16.626,8.836 16.617,8.688C16.448,5.726 25.589,0.27 34.475,0.508C39.812,0.65 44.31,7.954 42.66,12.158C42.5,12.565 42.293,12.49 41.961,12.115C43.157,15.184 43.657,18.808 43.657,22.576C43.657,25.212 43.488,27.607 43.141,29.758C43.184,29.748 43.208,29.751 43.208,29.772C43.253,32.624 43.376,42.439 36.935,44.732L36.935,45.289L37.647,45.543C37.666,45.523 37.693,45.512 37.722,45.513C39.233,45.613 48.002,46.321 50.058,49.448C50.126,49.55 50.241,49.773 50.39,50.088L50.391,50.088C51.487,52.396 54.427,59.658 53.899,60.964C53.887,60.994 53.691,61.02 53.373,61.041C53.638,62.163 53.817,63.052 53.841,63.489C53.842,63.512 53.683,63.491 53.683,63.491L46.851,63.489C46.846,63.494 46.8,63.49 46.789,63.489L46.217,63.489L20.469,63.489C20.469,63.489 20.42,63.493 20.421,63.489L10.984,63.489C10.982,63.489 10.819,63.502 10.816,63.489C10.694,62.913 10.663,61.916 10.686,60.734C10.497,60.706 10.384,60.677 10.368,60.645C9.426,58.769 10.736,53.442 11.384,51.368L11.384,51.367L11.384,51.367C11.498,51.004 11.591,50.741 11.648,50.613C12.656,48.363 23.808,44.242 24.131,44.969L24.134,44.92C24.151,44.646 24.231,43.256 24.26,41.781C22.951,40.575 21.939,39.016 21.475,37.051C21.357,36.556 21.165,35.464 20.946,34.099C20.672,33.275 20.394,32.417 20.01,31.614C19.617,31.692 19.279,31.83 18.626,31.775C17.534,31.682 14.608,30.041 14.405,25.754C14.282,23.168 14.389,21.472 15.93,21.163C15.636,20.496 14.919,18.548 14.701,16.088C14.426,12.983 15.718,9.439 16.598,9.147C16.639,9.133 16.682,9.122 16.727,9.113ZM16.446,21.02C16.396,21.051 16.35,21.084 16.308,21.116C16.358,21.114 16.409,21.112 16.462,21.112L16.455,21.072L16.446,21.02Z" style="stroke:black;stroke-width:0.68px;"/>
</svg>
