<svg width="100%" height="100%" viewBox="0 0 100 100" version="1.1" xmlns="http://www.w3.org/2000/svg" xmlns:xlink="http://www.w3.org/1999/xlink" xml:space="preserve" xmlns:serif="http://www.serif.com/" fill-rule="evenodd" clip-rule="evenodd" stroke-linejoin="round" stroke-miterlimit="1.41421"><path d="M100,15.083C100,13.261 98.523,11.783 96.7,11.783C81.512,11.783 18.433,11.783 3.282,11.783C2.412,11.783 1.577,12.129 0.961,12.745C0.346,13.36 0,14.195 0,15.066C0,27.598 0,72.354 0,84.917C0,86.739 1.477,88.217 3.3,88.217C18.482,88.217 81.518,88.217 96.7,88.217C98.523,88.217 100,86.739 100,84.917C100,72.36 100,27.64 100,15.083ZM62.939,44.852L56.861,44.852L56.861,70.852L62.939,70.852L62.939,44.852ZM46.206,44.852L42.998,44.852L42.998,47.807C39.368,48.285 37.342,50.395 37.342,53.547C37.342,56.417 39.03,58.555 42.632,59.203L43.279,59.315L43.279,64.493C41.76,64.268 40.353,63.564 39.171,62.298L36.723,64.971C38.045,66.631 40.212,67.729 42.998,67.954L42.998,70.852L46.206,70.852L46.206,67.813C49.835,67.166 51.861,64.802 51.861,61.707C51.861,58.865 50.145,56.839 46.571,56.164L45.924,56.051L45.924,51.352C47.106,51.605 48.119,52.168 48.907,53.04L51.327,50.339C50.201,49.045 48.541,48.088 46.206,47.778L46.206,44.852ZM47.922,61.988C47.922,63.283 47.275,64.155 45.924,64.465L45.924,59.822C47.303,60.159 47.922,60.722 47.922,61.988ZM41.31,53.406C41.31,52.224 41.9,51.493 43.279,51.268L43.279,55.517C41.9,55.151 41.31,54.588 41.31,53.406ZM12.24,20.498C14.641,20.498 16.59,22.447 16.59,24.848C16.59,27.249 14.641,29.198 12.24,29.198C9.839,29.198 7.89,27.249 7.89,24.848C7.89,22.447 9.839,20.498 12.24,20.498ZM24.103,20.498C26.504,20.498 28.453,22.447 28.453,24.848C28.453,27.249 26.504,29.198 24.103,29.198C21.703,29.198 19.753,27.249 19.753,24.848C19.753,22.447 21.703,20.498 24.103,20.498ZM35.997,20.498C38.397,20.498 40.347,22.447 40.347,24.848C40.347,27.249 38.397,29.198 35.997,29.198C33.596,29.198 31.647,27.249 31.647,24.848C31.647,22.447 33.596,20.498 35.997,20.498Z" fill="#1a1a1a"/></svg>