<svg width="100%" height="100%" viewBox="0 0 100 100" version="1.1" xmlns="http://www.w3.org/2000/svg" xmlns:xlink="http://www.w3.org/1999/xlink" xml:space="preserve" xmlns:serif="http://www.serif.com/" fill-rule="evenodd" clip-rule="evenodd" stroke-linecap="round" stroke-linejoin="round" stroke-miterlimit="1.5"><g id="me"><path d="M318.912,509.972C312.791,510.907 304.814,511.145 295.466,510.351C293.264,510.164 290.602,509.588 287.62,508.588C272.052,504.502 259.528,493.993 249.954,480.06C238.103,464.646 228.538,442.723 227.125,412.878L227.125,412.877C226.098,403.03 225.941,393.365 226.637,384.396C227.26,364.651 230.74,350.381 240.83,343.132C243.813,340.053 247.246,337.915 251.122,336.927C246.017,324.83 235.296,294.386 231.923,256.372C227.461,206.1 248.39,148.721 262.627,143.997C263.301,143.774 263.999,143.589 264.717,143.441C263.68,141.254 263.08,138.961 262.943,136.565C260.199,88.611 408.204,0.269 552.07,4.122C638.474,6.436 711.309,124.68 684.586,192.753C682.004,199.331 678.643,198.118 673.265,192.058C683.037,217.12 689.937,244.47 694.376,273.252C695.149,273.383 695.555,273.458 695.555,273.458L696.853,289.015C696.759,289.028 696.659,289.044 696.553,289.063C699.404,312.509 700.725,336.773 700.725,361.417C700.725,404.106 697.997,442.868 692.38,477.701C693.082,477.531 693.464,477.59 693.469,477.931C694.184,524.099 696.188,683.02 591.896,720.139L591.896,729.156L592.72,729.45C593.064,728.819 593.749,728.443 594.474,728.5C625.277,731.273 771.786,746.944 804.371,796.488C805.463,798.149 807.329,801.751 809.75,806.847L809.751,806.85C827.504,844.205 875.104,961.789 866.558,982.948C866.365,983.427 863.188,983.846 858.037,984.196C862.328,1002.36 865.226,1016.74 865.614,1023.82C865.634,1024.2 863.052,1023.86 863.052,1023.86L752.452,1023.82C752.365,1023.9 751.618,1023.84 751.443,1023.82L742.183,1023.82L325.309,1023.82C325.309,1023.82 324.515,1023.88 324.526,1023.82L171.746,1023.82C171.722,1023.82 169.065,1024.03 169.02,1023.82C167.04,1014.5 166.538,998.359 166.921,979.213C163.849,978.77 162.026,978.288 161.765,977.768C146.51,947.398 167.726,861.15 178.223,827.565C180.059,821.692 181.566,817.43 182.494,815.358C198.811,778.917 379.366,712.199 384.604,723.976L384.652,723.187C384.916,718.75 386.211,696.24 386.692,672.363C365.499,652.834 349.106,627.597 341.587,595.781C339.692,587.761 336.581,570.079 333.037,547.982C328.845,535.4 324.606,522.323 318.912,509.972Z" transform="matrix(0.0960784,0,0,0.0960784,0.807842,0.615687)" stroke="#000" stroke-width="10.99px"/></g></svg>