<?xml version="1.0" encoding="UTF-8" standalone="no"?>
<!DOCTYPE svg PUBLIC "-//W3C//DTD SVG 1.1//EN" "http://www.w3.org/Graphics/SVG/1.1/DTD/svg11.dtd">
<svg width="100%" height="100%" viewBox="0 0 79 60" version="1.1" xmlns="http://www.w3.org/2000/svg" xmlns:xlink="http://www.w3.org/1999/xlink" xml:space="preserve" xmlns:serif="http://www.serif.com/" style="fill-rule:evenodd;clip-rule:evenodd;stroke-linejoin:round;stroke-miterlimit:1.41421;">
    <g id="terminal" transform="matrix(0.153846,0,0,0.153846,-1.77636e-15,3.55271e-15)">
        <path d="M510,373.285C509.999,382.515 502.554,389.999 493.368,390L16.631,390C7.446,390 0,382.516 0,373.285L0,16.715C0,7.484 7.446,0 16.631,0L493.369,0C502.553,0 510,7.483 510,16.715L510,373.285ZM355.278,283.987L249.5,283.987C248.196,283.987 247.1,284.402 246.211,285.231C245.322,286.061 244.878,287.128 244.878,288.431L244.878,306.031C244.878,307.335 245.322,308.431 246.211,309.32C247.1,310.209 248.196,310.653 249.5,310.653L355.278,310.653C356.582,310.653 357.648,310.209 358.478,309.32C359.307,308.431 359.722,307.335 359.722,306.031L359.722,288.431C359.722,287.128 359.307,286.061 358.478,285.231C357.648,284.402 356.582,283.987 355.278,283.987ZM154.011,290.742C152.944,290.742 152.056,290.387 151.344,289.676C150.633,288.965 150.278,288.076 150.278,287.009L150.278,266.742C150.278,265.083 150.693,263.809 151.522,262.92C152.352,262.031 153.596,260.994 155.256,259.809L193.122,234.92L155.256,210.209C153.715,209.261 152.5,208.283 151.611,207.276C150.722,206.268 150.278,204.876 150.278,203.098L150.278,183.009C150.278,181.824 150.633,180.905 151.344,180.253C152.056,179.602 152.944,179.276 154.011,179.276C154.722,179.276 155.67,179.631 156.856,180.342L221.744,224.431C223.641,225.735 224.974,226.92 225.744,227.987C226.515,229.053 226.9,230.416 226.9,232.076L226.9,237.765C226.9,239.424 226.485,240.846 225.656,242.031C224.826,243.216 223.522,244.402 221.744,245.587L156.856,289.676C155.67,290.387 154.722,290.742 154.011,290.742ZM183.324,88.965C171.097,88.965 161.15,78.967 161.15,66.679C161.15,54.39 171.097,44.393 183.324,44.393C195.551,44.393 205.498,54.39 205.498,66.679C205.498,78.967 195.55,88.965 183.324,88.965ZM122.919,88.965C110.692,88.965 100.745,78.967 100.745,66.679C100.745,54.39 110.692,44.393 122.919,44.393C135.146,44.393 145.093,54.39 145.093,66.679C145.093,78.967 135.146,88.965 122.919,88.965ZM62.515,88.965C50.288,88.965 40.341,78.967 40.341,66.679C40.341,54.39 50.288,44.393 62.515,44.393C74.742,44.393 84.689,54.39 84.689,66.679C84.689,78.967 74.742,88.965 62.515,88.965Z" style="fill:rgb(51,54,66);"/>
    </g>
</svg>
