<svg width="100%" height="100%" viewBox="0 0 1024 1024" version="1.1" xmlns="http://www.w3.org/2000/svg" xmlns:xlink="http://www.w3.org/1999/xlink" xml:space="preserve" xmlns:serif="http://www.serif.com/" fill-rule="evenodd" clip-rule="evenodd" stroke-linecap="round" stroke-linejoin="round" stroke-miterlimit="1.5"><g id="me" transform="matrix(1.01457,0,0,1.01401,69.7345,102.644)"><g id="body" transform="matrix(1,0,0,1,-702,-541)"><path id="neck" d="M1215,1097C1215,1058.13 1013.47,1039.21 1016,1063C1019.17,1092.83 1015,1160 1015,1160L815.879,1260C815.879,1260 799.032,1411.92 807,1449.46C807.043,1449.66 809.63,1449.46 809.63,1449.46L1360,1449.46L1476.62,1449.5C1476.62,1449.5 1479.11,1449.82 1479.09,1449.46C1477.38,1418.28 1425.19,1240 1425.19,1240L1215,1165L1215,1183.74C1215,1183.74 1215,1113.02 1215,1097Z" stroke="#000" stroke-width="6.67px"/><g id="head"><path d="M1138.93,525.912C1150.61,525.912 1163.66,546.057 1170.97,608.292C1177.49,663.735 1180.07,740.019 1180.07,819.328C1180.07,930.031 1176.8,1004.05 1169.35,1060C1165.36,1089.9 1159.84,1110 1152.28,1110C1141.66,1110 1127.44,1092.05 1118.18,1040C1114.55,1019.55 1113.75,981.806 1110.91,950C1105.89,893.721 1102.33,835.291 1100.73,780C1099.11,724.298 1100.4,695.346 1103.64,650C1110.06,560.026 1124.26,525.912 1138.93,525.912Z" transform="matrix(5.5,0,0,1,-5160,0)" stroke="#000" stroke-width="1.69px"/></g></g><g id="shirt" transform="matrix(1,0,0,1,-702,-541)"><path id="shirt1" serif:id="shirt" d="M1219.56,1160.82C1218.43,1160.7 1217.36,1161.29 1216.85,1162.3C1216.35,1163.31 1216.53,1164.53 1217.3,1165.35C1224.67,1173.25 1237.02,1188.35 1236,1200C1234.69,1214.92 1214.78,1248.46 1150,1243.13C1075.06,1236.97 1047.46,1218.15 1035,1205C1023.71,1193.09 1016.52,1163.43 1015,1160C1009.95,1148.63 835.743,1213.04 820,1248.22C813.987,1261.65 782.708,1370.55 800,1405C802.508,1410 954.261,1411.28 957.036,1410C960.959,1408.19 949.22,1320 949.22,1320C949.22,1320 961.268,1425.5 957.036,1449.46C957.025,1449.52 957.791,1449.46 957.791,1449.46L1368.9,1449.46C1368.9,1449.46 1369.84,1449.55 1369.91,1449.46C1381.42,1435.43 1370,1340 1370,1340C1370,1340 1379.3,1393.96 1375.87,1410C1375.12,1413.48 1478.89,1412.76 1480,1410C1489.37,1386.79 1428.78,1243.35 1420,1230C1389.24,1183.2 1253.23,1164.72 1219.56,1160.82Z" stroke="#000" stroke-width="6.67px"/><g id="pocket"><path d="M494.725,894.063L494.725,819.269L410.82,822.269L410.82,894.063" transform="matrix(1.08844,0,0,1.08844,794.848,469.863)" stroke="#0e0e0f" stroke-opacity="0.8" stroke-width="5.56px" stroke-linecap="butt"/></g></g><g id="sideburn"><path d="M1096.41,728.47C1120.16,720.429 1207.78,714.465 1204.51,759.225C1201.84,795.868 1161.56,855.185 1157.47,906C1152.63,966.181 1210.18,1077.78 1215.23,1087.89C1217.34,1092.13 1184.75,1116.29 1170,1096.39C1097.55,998.666 1034.67,1047.91 1034.67,1051.86C1034.66,1054.45 998.303,989.553 1012.09,904.182C1027.05,811.457 1075.85,735.43 1096.41,728.47Z" transform="matrix(0.387438,0,0,0.570192,-214,-348.999)" fill-opacity="0.94902"/></g><g><path d="M1373.25,-23.347C1555.69,-66.366 1734.54,75.621 1787.86,267.218C1808.94,342.966 1845.63,861.864 1840.39,886.491C1838.93,893.403 1821.28,926.226 1811.39,907.998C1798.01,883.303 1798.41,741.032 1765.78,647.246C1733.93,555.682 1658.09,550.989 1617.91,545.031C1598.79,542.196 1533.53,682.873 1394.47,677.96C1318.17,675.265 1251.74,561.711 1232.2,556.754C1199.54,548.468 1131.88,623.186 1131.79,614.049C1130.7,494.378 1104.94,39.918 1373.25,-23.347Z" transform="matrix(-0.538871,0.00171569,-0.00123354,-0.387436,1234.29,619.373)" stroke="#000" stroke-width="14.54px"/></g><g id="lobe"><path d="M951.403,951.916C836.199,979.633 836.411,701.854 929.85,811.507" transform="matrix(1,0,0,1,-702,-541)" stroke="#000" stroke-width="6.67px"/></g><g id="cap" transform="matrix(1.05828,0.0128269,-0.0132294,1.09271,-50.9026,-345.104)"><g id="cover"><path d="M547.415,302.492C500.217,266.365 418.19,263.822 321,301.732C219.38,341.37 219.28,481.957 219.28,481.957C256.325,462.284 307.818,433.888 365.352,415.437C451.093,387.939 556.147,385.864 625.821,390.627C625.821,390.627 592.66,337.125 547.415,302.492Z" transform="matrix(1,0,0,0.944995,0,26.3472)" stroke="#000" stroke-width="6.6px"/></g><g id="pin"><path d="M419.868,264C425.956,264 436.249,264.13 442.397,264.606C448.172,265.054 454.151,266.194 447.509,266.316C442.82,266.402 439.57,266.2 422.94,266.2C406.31,266.2 389.737,267.104 389.737,266C389.737,265.361 394.257,264.792 401.288,264.426C406.409,264.159 412.861,264 419.868,264Z" transform="matrix(0.459085,-0.131943,1.00249,3.48809,-83.7235,-580.964)" stroke="#000" stroke-width="2.45px"/></g><g id="bill"><path d="M448.222,465.673C358.818,473.529 269.265,489.274 220.056,522.584C223.558,516.949 339.545,529.889 341.124,523.012C342.741,515.967 391.192,505.103 468.755,496.97C531.779,490.362 606.84,496.929 635.197,497.422C641.523,497.532 596.928,466.341 570.221,463.631C513.36,457.861 489.908,462.009 448.222,465.673Z" transform="matrix(1,0,0,1.14168,42.5626,-137.964)" stroke="#000" stroke-width="5.97px"/></g></g></g></svg>