<?xml version="1.0" encoding="UTF-8" standalone="no"?>
<!DOCTYPE svg PUBLIC "-//W3C//DTD SVG 1.1//EN" "http://www.w3.org/Graphics/SVG/1.1/DTD/svg11.dtd">
<svg width="100%" height="100%" viewBox="0 0 500 465" version="1.1" xmlns="http://www.w3.org/2000/svg" xmlns:xlink="http://www.w3.org/1999/xlink" xml:space="preserve" xmlns:serif="http://www.serif.com/" style="fill-rule:evenodd;clip-rule:evenodd;stroke-linecap:round;stroke-linejoin:round;stroke-miterlimit:1.5;">
    <g id="avatar" transform="matrix(0.513769,0,0,0.513483,-4.50433,0.405618)">
        <g id="speech-bubble" transform="matrix(1.35757,-0.0706551,0.0518509,0.996264,-1734.77,-271.47)">
            <path d="M1800,530.678C1943.28,531.166 1968.6,627.121 1968.6,743.023C1968.6,858.925 1938.88,937.17 1811.81,934.44C1687.56,931.771 1652.14,882.706 1637.5,788.796C1636.64,783.285 1612.03,776.271 1612.03,776.271C1612.03,776.271 1634.67,758.36 1634.67,751.356C1634.67,635.454 1682.67,530.278 1800,530.678Z" style="fill:white;stroke:black;stroke-width:4.34px;"/>
        </g>
        <g id="hi" transform="matrix(1.03808,7.20714e-18,0,1.03866,-101.995,-77.7647)">
            <path d="M753.5,386.646L794.3,386.646L794.3,328.646L820.5,328.646L820.5,468.246L794.3,468.246L794.3,408.246L753.5,408.246L753.5,468.246L727.3,468.246L727.3,328.646L753.5,328.646L753.5,386.646ZM901.1,365.046L901.1,448.046L932.7,448.046L932.7,468.246L841.5,468.246L841.5,448.046L875.5,448.046L875.5,385.246L841.5,385.246L841.5,365.046L901.1,365.046ZM888.3,349.046C900.3,349.046 904.7,343.246 904.7,336.046L904.7,331.246C904.7,324.046 900.3,318.246 888.3,318.246C876.3,318.246 871.9,324.046 871.9,331.246L871.9,336.046C871.9,343.246 876.3,349.046 888.3,349.046Z"/>
        </g>
        <g id="me" transform="matrix(0.903861,0,0,0.903861,-70.9215,75.7249)">
            <g id="body" transform="matrix(1,0,0,1,-702,-541)">
                <path id="neck" d="M1215,1097C1215,1058.13 1013.47,1039.21 1016,1063C1019.17,1092.83 1015,1160 1015,1160L815.879,1260C815.879,1260 799.032,1411.92 807,1449.46C807.043,1449.66 809.63,1449.46 809.63,1449.46L1360,1449.46L1476.62,1449.5C1476.62,1449.5 1479.11,1449.82 1479.09,1449.46C1477.38,1418.28 1425.19,1240 1425.19,1240L1215,1165L1215,1183.74C1215,1183.74 1215,1113.02 1215,1097Z" style="fill:rgb(193,143,120);stroke:black;stroke-width:6.67px;"/>
                <g id="head" transform="matrix(5.5,0,0,1,-5160,0)">
                    <path d="M1138.18,500C1149.86,500 1161.78,537.766 1169.09,600C1175.61,655.443 1178.18,730.69 1178.18,810C1178.18,920.703 1174.73,1004.05 1167.27,1060C1163.29,1089.9 1159.84,1110 1152.28,1110C1141.66,1110 1127.44,1092.05 1118.18,1040C1114.55,1019.55 1113.75,981.806 1110.91,950C1105.89,893.721 1102.33,835.291 1100.73,780C1099.11,724.298 1100.4,695.346 1103.64,650C1110.06,560.026 1123.5,500 1138.18,500Z" style="fill:rgb(193,143,120);stroke:black;stroke-width:1.69px;"/>
                </g>
            </g>
            <g id="shirt" transform="matrix(1,0,0,1,-702,-541)">
                <path id="shirt1" serif:id="shirt" d="M1227.9,1161.84C1225.5,1161.55 1223.17,1162.75 1222.02,1164.86C1220.86,1166.98 1221.11,1169.59 1222.65,1171.45C1229.43,1179.68 1236.8,1190.9 1236,1200C1234.69,1214.92 1214.78,1248.46 1150,1243.13C1075.06,1236.97 1047.46,1218.15 1035,1205C1023.71,1193.09 1016.52,1163.43 1015,1160C1009.95,1148.63 835.743,1213.04 820,1248.22C813.987,1261.65 782.708,1370.55 800,1405C802.508,1410 954.261,1411.28 957.036,1410C960.959,1408.19 949.22,1320 949.22,1320C949.22,1320 961.268,1425.5 957.036,1449.46C957.025,1449.52 957.791,1449.46 957.791,1449.46L1368.9,1449.46C1368.9,1449.46 1369.84,1449.55 1369.91,1449.46C1381.42,1435.43 1370,1340 1370,1340C1370,1340 1379.3,1393.96 1375.87,1410C1375.12,1413.48 1478.89,1412.76 1480,1410C1489.37,1386.79 1428.78,1243.35 1420,1230C1391.36,1186.42 1271.46,1167.4 1227.9,1161.84Z" style="fill:rgb(19,37,53);stroke:black;stroke-width:6.67px;"/>
                <g id="pocket" transform="matrix(1.08844,0,0,1.08844,794.848,469.863)">
                    <path d="M494.725,894.063L494.725,819.269L410.82,822.269L410.82,894.063" style="fill:none;stroke:rgb(14,14,15);stroke-opacity:0.8;stroke-width:5.56px;stroke-linecap:butt;"/>
                </g>
            </g>
            <g id="face" transform="matrix(1.24987,-0.0650498,0.0650498,1.24987,-1752.76,-595.296)">
                <g id="nose" transform="matrix(1,0,0,1,-13.6475,-15.0852)">
                    <path d="M1733.71,766.949C1742.73,801.844 1752.27,804.946 1758.25,818.709C1765.52,835.411 1766.38,835.364 1766.94,851.103C1767.18,857.73 1748.34,860.517 1740,860" style="fill:none;stroke:black;stroke-width:5.33px;"/>
                </g>
                <g id="eyes" transform="matrix(0.999667,-0.0257921,0.0257921,0.999667,-15.7306,56.5239)">
                    <g id="left" transform="matrix(1,0,0,1,-10.0422,0.550442)">
                        <g id="Eye" transform="matrix(1.05,7.28584e-18,3.99092e-17,5.5537,-84.5,-3339.23)">
                            <path d="M1640,730C1675.81,729.665 1690,729.848 1690,732.608C1690,735.368 1667.6,740 1640,740C1612.4,740 1596.67,736.237 1596.67,733.477C1596.67,730.718 1612.44,730.258 1640,730Z" style="fill:white;stroke:black;stroke-width:1.33px;"/>
                        </g>
                        <g id="Iris" transform="matrix(1,0,0,1,-0.998648,-1.65134)">
                            <circle cx="1650" cy="740" r="5"/>
                        </g>
                        <g id="Eyebrow" transform="matrix(0.998916,0.0465554,-0.0465554,0.998916,28.697,-57.4872)">
                            <path d="M1702,688C1700.39,688.513 1697.86,688.891 1696.31,689.275C1695.09,689.577 1598.52,694.253 1597.43,694.253" style="fill:none;stroke:black;stroke-width:20px;"/>
                        </g>
                    </g>
                    <g id="right" transform="matrix(0.987178,2.73479e-17,-6.82695e-17,0.970625,15.3484,17.7893)">
                        <g id="Eye1" serif:id="Eye" transform="matrix(1.02437,-5.88369e-17,4.78887e-18,2.43378,-36.4722,-1079.54)">
                            <path d="M1790,738.401C1814.84,738.401 1834,739.951 1834,745.911C1834,751.872 1816.5,760.183 1786.74,759.992C1761.91,759.832 1745,751.872 1745,745.911C1745,739.951 1765.16,738.401 1790,738.401Z" style="fill:white;stroke:black;stroke-width:2.94px;"/>
                        </g>
                        <g id="Iris1" serif:id="Iris" transform="matrix(1,0,0,1,148.822,0.35162)">
                            <circle cx="1650" cy="740" r="5"/>
                        </g>
                        <g id="Eyebrow1" serif:id="Eyebrow" transform="matrix(1.22606,-0.0218443,0.00978466,0.549185,-408.082,368.991)">
                            <path d="M1754,693C1759.11,694.676 1759.11,694.725 1763,696C1763.99,696.324 1830,692.613 1830,692.485" style="fill:none;stroke:black;stroke-width:21.38px;"/>
                        </g>
                    </g>
                </g>
            </g>
            <g id="beard" transform="matrix(1,0,0,1,-702,-541)">
                <g transform="matrix(-0.521035,0.0016589,-0.00123354,-0.387436,1903.46,1160.48)">
                    <path d="M1345.61,6.898C1469.06,-32.123 1734.37,41.256 1784.06,328.291C1797.74,407.262 1845.63,861.864 1840.39,886.491C1838.93,893.403 1821.28,926.226 1811.39,907.998C1798.01,883.303 1798.41,741.032 1765.78,647.246C1733.93,555.682 1659.96,572.4 1619.79,566.442C1600.66,563.606 1533.53,682.873 1394.47,677.96C1318.17,675.265 1265.18,569.796 1245.64,564.84C1212.98,556.553 1131.87,628.277 1131.78,619.139C1130.69,499.469 1127.73,75.771 1345.61,6.898Z" style="fill:rgb(44,24,13);stroke:black;stroke-width:14.54px;"/>
                </g>
                <g>
                    <g transform="matrix(0.986643,0.162898,-0.162898,0.986643,179.187,-136.684)">
                        <path d="M980,970C983.083,979.563 1001.56,1014.46 1007.85,1020C1021.65,1032.16 1034.52,1039.05 1045,1045" style="fill:rgb(34,19,11);fill-opacity:0.603922;stroke:black;stroke-opacity:0.2;stroke-width:6.67px;"/>
                    </g>
                    <g transform="matrix(1,0,0,1,175,50)">
                        <path d="M1040,1055C1060.48,1046.13 1081.99,1034.79 1100,990" style="fill:rgb(34,19,11);fill-opacity:0.603922;stroke:black;stroke-opacity:0.2;stroke-width:6.67px;"/>
                    </g>
                    <g transform="matrix(-0.533337,-0.449395,0.430766,-0.511229,1295.39,1928.15)">
                        <path d="M1026.12,1037.82C1038.74,1031.78 1048.95,1027.49 1059.44,1017.05C1069.47,1007.07 1074.2,997.871 1077.03,990.62" style="fill:rgb(34,19,11);fill-opacity:0.603922;stroke:rgb(14,14,15);stroke-opacity:0.2;stroke-width:9.77px;"/>
                    </g>
                    <g transform="matrix(-0.0410767,0.696216,-0.667356,-0.039374,1816.78,307.475)">
                        <path d="M1040,1055C1060.48,1046.13 1081.99,1034.79 1100,990" style="fill:rgb(34,19,11);fill-opacity:0.603922;stroke:black;stroke-opacity:0.2;stroke-width:9.77px;"/>
                    </g>
                    <g transform="matrix(0.346912,0.605026,0.579945,-0.332532,289.251,691.594)">
                        <path d="M1040,1055C1060.48,1046.13 1081.99,1034.79 1100,990" style="fill:rgb(34,19,11);fill-opacity:0.603922;stroke:black;stroke-opacity:0.2;stroke-width:9.77px;"/>
                    </g>
                </g>
            </g>
            <g id="sideburn" transform="matrix(0.387438,0,0,0.441899,-203.442,-233.946)">
                <g transform="matrix(1,0,0,1.29032,-27.2494,-260.361)">
                    <path d="M1056.46,715.745C1104.15,704.987 1199.11,747.185 1195.84,791.945C1193.17,828.589 1161.56,855.185 1157.47,906C1152.63,966.181 1210.18,1077.78 1215.23,1087.89C1217.34,1092.13 1184.75,1116.29 1170,1096.39C1097.55,998.666 1034.67,1047.91 1034.67,1051.86C1034.66,1054.45 991.167,991.547 980,906C968.89,820.888 1021.01,723.742 1056.46,715.745Z" style="fill:rgb(44,24,13);stroke:black;stroke-width:13.69px;"/>
                </g>
                <path d="M1070,720C1084.6,735.53 1080.59,781.653 1080,790C1077.43,826.194 1050.97,874.496 1030,950C1019.18,988.959 1039.66,1040 1040,1040" style="fill:none;stroke:black;stroke-opacity:0.501961;stroke-width:16.06px;"/>
            </g>
            <g id="glasses" transform="matrix(1.08844,0,7.55254e-18,1.08844,-53.8818,-81.4771)">
                <path d="M291.765,289.041L290.08,268.679C290.08,268.679 324.25,257.72 360.888,254.689C404.527,251.078 427.603,257.609 451.099,255.664C474.596,253.72 496.019,243.932 539.657,240.321C576.295,237.289 612.709,243.988 612.709,243.988L613.859,257.786C611.763,258.067 605.806,260.192 605.736,265.842C605.333,304.696 594.92,337.101 552.342,340.624C506.53,344.415 487.332,329.605 477.073,307.33L477.072,307.332C469.162,291.473 460.684,278.911 453.075,279.541C445.466,280.17 439.168,293.954 433.973,310.898L433.972,310.896C427.513,334.555 411.266,353.769 365.454,357.559C322.876,361.082 307.072,333.27 300.289,295.01C299.291,289.449 293.899,289.222 291.785,289.29L291.765,289.041C291.678,289.086 250.829,310.032 248.821,309.366C243.309,307.539 231.584,303.592 227.23,312.173C222.479,321.535 225.129,354.493 223.282,362.277C222.831,364.179 216.055,364.968 214.691,359.893C211.575,348.302 219.183,312.587 221.84,305.78C228.568,288.55 290.08,269.053 290.08,269.053L291.765,289.041ZM368.218,347.281C328.284,350.585 315.985,329.835 311.448,296.624C308.311,273.654 333.319,266.875 365.19,264.238C397.062,261.601 426.126,260.942 428.111,284.925C430.342,311.891 415.44,343.373 368.218,347.281ZM594.725,272.345C595.709,305.85 588.315,328.667 548.381,331.972C501.159,335.879 480.816,307.715 478.585,280.748C476.6,256.766 505.459,252.427 537.331,249.79C569.202,247.153 594.044,249.172 594.725,272.345Z" style="fill:rgb(48,39,34);stroke:black;stroke-width:5.56px;"/>
            </g>
            <g id="ear" transform="matrix(1,0,0,1,-702,-541)">
                <path id="fill" d="M897.995,787.167C905.2,787.452 925.058,801.028 927.002,810.213C928.116,815.477 931.144,846.692 934.969,873.018C940.198,909.006 956.281,950.149 950.614,951.268C944.475,952.481 939.195,954.642 928.998,953.775C911.948,952.325 866.231,926.686 863.061,859.679C860.889,813.754 863.343,785.797 897.995,787.167Z" style="fill:rgb(193,143,120);"/>
                <path id="lobe" d="M951.403,951.916C836.199,979.633 836.411,701.854 929.85,811.507" style="fill:none;stroke:black;stroke-width:6.67px;"/>
                <g transform="matrix(-1.21491,0.59008,1.10925,2.28382,572.878,-140.093)">
                    <path d="M103.266,416C105.699,415.836 108.686,417.474 110.879,421.86C113.491,427.088 112.238,427.24 112.238,427.24C112.238,427.24 109.598,424.855 106.353,421.923C101.716,417.733 94.625,420.623 94.625,420.623C94.625,420.623 98.964,416.29 103.266,416Z" style="fill:rgb(64,64,64);fill-opacity:0.2;"/>
                </g>
                <g transform="matrix(1.27654,-0.441203,0.903012,2.61269,385.839,-232.928)">
                    <path d="M103.266,416C110.036,416 115.533,421.982 115.533,429.35C115.533,434.759 113.515,439.595 109.763,441.784C108.404,442.577 98.723,438.404 98.723,438.404C98.723,438.404 118.738,448.957 107.541,428.74C100.032,415.182 92.934,422.156 92.934,422.156C92.934,422.156 98.93,416 103.266,416Z" style="fill:rgb(64,64,64);fill-opacity:0.101961;"/>
                </g>
                <g id="Inside" transform="matrix(1,0,0,1.10111,0,-95.4675)">
                    <path d="M887.222,840C887.776,794.441 930.661,837.153 924.872,880C924.237,884.698 905.136,871.537 905.253,880C905.871,924.863 924.228,931.43 931.94,900" style="fill:none;stroke:black;stroke-width:6.35px;"/>
                </g>
            </g>
            <g id="hair" transform="matrix(0.387438,0,0,0.387438,-203.442,-196.023)">
                <g transform="matrix(1.34483,0,0,1,-365.517,240)">
                    <path d="M1573.08,70C1733.08,75.765 1867.94,370.388 1818.46,540C1804.97,586.241 1780.02,477.973 1692.05,380C1677.24,363.499 1447.26,478.913 1312.82,490C1155.01,503.015 1040.59,468.121 1037.69,400C1032.61,280.516 1306.68,60.401 1573.08,70Z" style="fill:rgb(44,24,13);stroke:black;stroke-width:14.54px;"/>
                </g>
                <g>
                    <path d="M1137.36,663.127C1369.16,693.121 1765.83,620.312 1920,534.822" style="fill:none;stroke:black;stroke-opacity:0.501961;stroke-width:17.23px;"/>
                    <path d="M1139.38,609.511C1204.66,611.709 1725.76,587.777 1880,460" style="fill:none;stroke:black;stroke-opacity:0.501961;stroke-width:17.23px;"/>
                    <path d="M1149.58,581.614C1203.39,530.609 1703.95,351.578 1820,380" style="fill:none;stroke:black;stroke-opacity:0.501961;stroke-width:17.23px;"/>
                </g>
            </g>
            <g id="mouth" transform="matrix(1.65947,-0.0358225,0.0337892,1.56528,-2422.82,-964.851)">
                <path d="M1725.58,916.004C1736.34,916.004 1745,920.672 1745,921.5C1745,922.328 1736.26,920.254 1725.5,920.254C1714.73,920.254 1706,922.328 1706,921.5C1706,920.672 1714.82,916.004 1725.58,916.004Z" style="stroke:rgb(30,0,0);stroke-width:3.1px;"/>
            </g>
        </g>
    </g>
</svg>
