<?xml version="1.0" encoding="UTF-8" standalone="no"?>
<!DOCTYPE svg PUBLIC "-//W3C//DTD SVG 1.1//EN" "http://www.w3.org/Graphics/SVG/1.1/DTD/svg11.dtd">
<svg width="100%" height="100%" viewBox="0 0 510 390" version="1.1" xmlns="http://www.w3.org/2000/svg" xmlns:xlink="http://www.w3.org/1999/xlink" xml:space="preserve" xmlns:serif="http://www.serif.com/" style="fill-rule:evenodd;clip-rule:evenodd;stroke-linejoin:round;stroke-miterlimit:1.41421;">
    <g id="terminal" transform="matrix(0.996092,0,0,1.00111,0,-61.0682)">
        <path id="screen" d="M495.304,450.783L16.696,450.783C7.475,450.783 0,443.307 0,434.087L0,177.731C0,168.511 7.475,161.035 16.696,161.035L495.305,161.035C504.525,161.035 512.001,168.51 512.001,177.731L512.001,434.087C512,443.307 504.525,450.783 495.304,450.783Z" style="fill:#21232e;fill-rule:nonzero;"/>
        <g transform="matrix(1.00392,0,0,0.998887,-149.777,139.756)">
            <path d="M300.291,201.894L376.736,161.005L376.736,136.472L300.291,95.583L300.291,120.116L353.091,148.027L353.091,149.45L300.291,177.361L300.291,201.894Z" style="fill:#57ec87;fill-rule:nonzero;"/>
            <rect x="402.513" y="215.583" width="85.333" height="21.511" style="fill:#57ec87;fill-rule:nonzero;"/>
        </g>
        <path id="bar" d="M512,194.426L0,194.426L0,77.913C0,68.693 7.475,61.217 16.696,61.217L495.305,61.217C504.525,61.217 512.001,68.692 512.001,77.913L512.001,194.426L512,194.426Z" style="fill:#333642;fill-rule:nonzero;"/>
        <g id="menu" transform="matrix(1,0,0,1,-259.524,2.3135)">
            <path d="M443.568,147.769C431.293,147.769 421.307,137.783 421.307,125.508C421.307,113.233 431.293,103.247 443.568,103.247C455.843,103.247 465.829,113.233 465.829,125.508C465.829,137.783 455.842,147.769 443.568,147.769Z" style="fill:#947fb5;fill-rule:nonzero;"/>
            <path d="M382.926,147.769C370.651,147.769 360.665,137.783 360.665,125.508C360.665,113.233 370.651,103.247 382.926,103.247C395.201,103.247 405.187,113.233 405.187,125.508C405.187,137.783 395.201,147.769 382.926,147.769Z" style="fill:#947fb5;fill-rule:nonzero;"/>
            <path d="M322.285,147.769C310.01,147.769 300.024,137.783 300.024,125.508C300.024,113.233 310.01,103.247 322.285,103.247C334.56,103.247 344.546,113.233 344.546,125.508C344.546,137.783 334.56,147.769 322.285,147.769Z" style="fill:#947fb5;fill-rule:nonzero;"/>
        </g>
    </g>
</svg>
